<?xml version="1.0" encoding="utf-8"?>
<!-- Generator: Adobe Illustrator 26.0.1, SVG Export Plug-In . SVG Version: 6.00 Build 0)  -->
<svg version="1.1" id="Capa_2" xmlns="http://www.w3.org/2000/svg" xmlns:xlink="http://www.w3.org/1999/xlink" x="0px" y="0px"
	 viewBox="0 0 216.57 130.79" style="enable-background:new 0 0 216.57 130.79;" xml:space="preserve">
<style type="text/css">
	.st0{fill:none;stroke:#575756;stroke-width:0.5;stroke-miterlimit:10;}
	.st1{fill:#575756;}
	.st2{fill:#D9D3B9;}
	.st3{fill:none;}
	.st4{fill:#1D1D1B;}
	.st5{font-family:"Roboto", sans-serif;}
	.st6{font-size:7.5px;}
	.st7{font-family:"Roboto", sans-serif}
	.st8{font-family:"Roboto", sans-serif}
	.st9{font-size:6.5px;}
	.st10{fill:#A29F9E;}
	.st11{fill:#FFFFFF;}
</style>
<g>
	<g>
		<polyline class="st0" points="82.44,53.12 82.44,59.34 107.14,59.34 133.42,59.34 133.42,53.03 		"/>
		<g>
			<g>
				<polyline class="st0" points="32.19,72.16 32.19,66.9 107.63,66.9 				"/>
				<g>
					<polygon class="st1" points="34.43,71.51 32.19,75.39 29.95,71.51 					"/>
				</g>
			</g>
		</g>
		<g>
			<g>
				<line class="st0" x1="82.44" y1="72.16" x2="82.44" y2="66.9"/>
				<g>
					<polygon class="st1" points="84.68,71.51 82.44,75.39 80.19,71.51 					"/>
				</g>
			</g>
		</g>
		<line class="st0" x1="107.27" y1="59.34" x2="107.27" y2="66.9"/>
		<g>
			<g>
				<polyline class="st0" points="182.93,72.16 182.93,66.9 107.49,66.9 				"/>
				<g>
					<polygon class="st1" points="185.18,71.51 182.93,75.39 180.69,71.51 					"/>
				</g>
			</g>
		</g>
		<g>
			<g>
				<line class="st0" x1="133.42" y1="72.16" x2="133.42" y2="66.9"/>
				<g>
					<polygon class="st1" points="135.67,71.51 133.42,75.39 131.18,71.51 					"/>
				</g>
			</g>
		</g>
	</g>
	<g>
		<path class="st2" d="M83.08,21.8c-0.09,1.34-0.18,2.68-0.27,4.03c0,0.08,0.06,0.15,0.14,0.15h2.26c0.11,0,0.18-0.12,0.12-0.21
			c-0.15-0.24-0.32-0.48-0.5-0.7c-0.03-0.05-0.08-0.1-0.08-0.16c0-0.04,0.01-0.09,0.03-0.13c0.27-0.71,0.54-1.43,0.84-2.13
			c-0.04-0.12-0.07-0.24-0.1-0.35c-0.06-0.22-0.12-0.42-0.19-0.63l-0.03-0.08c0-0.03-0.01-0.06-0.02-0.09c0,0,0-0.01-0.01-0.02
			c-0.57,0.14-1.16,0.22-1.66,0.28C83.43,21.76,83.26,21.79,83.08,21.8z M73.45,21.9c-0.1,0.16-0.17,0.34-0.24,0.53
			c0.03,0.07,0.07,0.13,0.11,0.2c0.2,0.41,0.36,0.84,0.51,1.26c0.24,0.66,0.48,1.32,0.72,1.98c0.02,0.05,0.07,0.09,0.13,0.09h2.54
			c0.12,0,0.18-0.13,0.11-0.22c-0.06-0.07-0.11-0.14-0.17-0.21c-0.23-0.29-0.47-0.58-0.74-0.83c-0.06-0.05-0.12-0.11-0.15-0.18
			c-0.03-0.06-0.03-0.12-0.03-0.19c-0.08-1.14-0.17-2.28-0.19-3.42c-0.38-0.12-0.77-0.23-1.12-0.23c-0.06,0-0.11,0-0.16,0.01
			c-0.29,0.04-0.57,0.2-0.75,0.44c-0.07,0.09-0.13,0.17-0.2,0.26C73.68,21.57,73.55,21.73,73.45,21.9z M66.99,18.18
			c0.33-0.21,0.68-0.41,1.03-0.59c0.18-0.09,0.36-0.18,0.54-0.27c0,0.3,0.17,0.68,0.3,0.95c0.1,0.22,0.16,0.41,0.32,0.59
			c0.16,0.19,0.35,0.35,0.51,0.52c0.54,0.6,0.45,1.33,0.36,2.08c-0.1,0.78-0.25,1.55-0.33,2.32c-0.07,0.61-0.07,1.23-0.1,1.85
			c0,0.06,0,0.13-0.01,0.19c0,0.08,0.06,0.15,0.14,0.15h3.21c0.11,0,0.18-0.13,0.11-0.22c-0.2-0.26-0.41-0.52-0.65-0.74
			c-0.05-0.05-0.11-0.09-0.14-0.16c-0.16-0.18,0.02-0.65,0.06-0.85c0.07-0.33,0.16-0.65,0.25-0.97c0.13-0.45,0.26-0.95,0.51-1.35
			c0.17-0.28,0.39-0.53,0.58-0.8c0.25-0.33,0.63-0.56,1.05-0.61c0.6-0.07,1.27,0.19,1.83,0.35c0.63,0.17,1.25,0.36,1.88,0.49
			c1.69,0.36,3.42,0.42,5.13,0.2c0.55-0.06,1.09-0.14,1.63-0.27c0.09-0.02,0.2-0.05,0.29-0.01c0.16,0.06,0.19,0.27,0.24,0.42
			c0.07,0.24,0.15,0.47,0.21,0.72c0.13,0.47,0.25,0.94,0.35,1.42c0.17,0.77,0.31,1.54,0.53,2.3c0.02,0.06,0.07,0.1,0.13,0.1h2.64
			c0.12,0,0.18-0.14,0.11-0.22c-0.34-0.41-0.68-0.82-1.03-1.23c-0.05-0.06-0.1-0.12-0.11-0.19c-0.01-0.05-0.01-0.11,0-0.16
			c0.08-1.1,0.23-2.18,0.36-3.27c0-0.05,0.01-0.1,0.03-0.15c0.05-0.1,0.15-0.1,0.25-0.09c0.25,0.02,0.5,0.05,0.74,0.11
			c0.32,0.09,0.53,0.26,0.77,0.49c0.34,0.33,0.44,0.8,0.84,1.09c0.35,0.25,0.77,0.36,1.12,0.61c0.09,0.07,0.17,0.13,0.23,0.22
			c0.07,0.11,0.11,0.24,0.15,0.37c0.27,0.81,0.97,1.46,1.79,1.69c0.82,0.22,1.74,0.04,2.43-0.47c0.45-0.34,0.82-0.87,0.76-1.43
			c-0.07-0.63-0.63-1.08-0.91-1.65c-0.36-0.73-0.23-1.59-0.27-2.4c-0.02-0.31-0.06-0.61-0.23-0.87c-0.14-0.2-0.35-0.35-0.53-0.52
			c-0.32-0.29-0.55-0.64-0.78-1.01c0.25-0.29,0.48-0.59,0.59-0.95c0.04-0.15,0.06-0.33-0.07-0.42c-0.13-0.1-0.32,0-0.44,0.11
			c-0.19,0.16-0.35,0.36-0.46,0.59c0.02-0.04-0.19-0.36-0.22-0.4c-0.08-0.14-0.16-0.28-0.24-0.41c-0.16-0.23-0.33-0.46-0.53-0.66
			c-0.33-0.33-0.71-0.58-1.07-0.86c-0.37-0.3-0.74-0.6-1.13-0.88c-0.75-0.55-1.55-1.07-2.39-1.49c-1.65-0.82-3.42-1.4-5.23-1.72
			c-3.77-0.65-7.7-0.22-11.23,1.24c-1.02,0.42-2.01,0.97-2.83,1.72c-0.58,0.52-1.02,1.22-1.28,1.98c-0.16,0.39-0.3,0.78-0.45,1.17
			c-0.18,0.43-0.37,0.86-0.65,1.23c-0.17,0.24-0.38,0.46-0.59,0.67c-0.08,0.08-0.15,0.16-0.23,0.24
			C66.78,18.11,66.89,18.24,66.99,18.18z M95.36,19.15c0.08-0.17,0.27-0.24,0.44-0.16c0.16,0.08,0.24,0.28,0.16,0.44
			c-0.07,0.17-0.27,0.24-0.44,0.16C95.36,19.51,95.28,19.31,95.36,19.15z"/>
		<rect x="62.91" y="29.57" class="st3" width="39.04" height="21.11"/>
		<text transform="matrix(1 0 0 1 75.23 34.823)"><tspan x="0" y="0" class="st4 st5 st6">Coca</tspan><tspan x="14.26" y="0" class="st4 st5 st6"> </tspan><tspan x="-3.82" y="7.5" class="st4 st7 st6">25 años</tspan><tspan x="-7.04" y="15" class="st4 st8 st9">En Buin Zoo</tspan></text>
		<g>
			<text transform="matrix(1 0 0 1 71.7822 17.9536)" class="st4 st8 st9">Hembra</text>
		</g>
	</g>
	<g>
		<path class="st10" d="M134.07,21.8c-0.09,1.34-0.18,2.68-0.27,4.03c0,0.08,0.06,0.15,0.14,0.15h2.26c0.11,0,0.18-0.12,0.12-0.21
			c-0.15-0.24-0.32-0.48-0.5-0.7c-0.03-0.05-0.08-0.1-0.08-0.16c0-0.04,0.01-0.09,0.03-0.13c0.27-0.71,0.54-1.43,0.84-2.13
			c-0.04-0.12-0.07-0.24-0.1-0.35c-0.06-0.22-0.12-0.42-0.19-0.63l-0.03-0.08c0-0.03-0.01-0.06-0.02-0.09c0,0,0-0.01-0.01-0.02
			c-0.57,0.14-1.16,0.22-1.66,0.28C134.42,21.76,134.24,21.79,134.07,21.8z M124.43,21.9c-0.1,0.16-0.17,0.34-0.24,0.53
			c0.03,0.07,0.07,0.13,0.11,0.2c0.2,0.41,0.36,0.84,0.51,1.26c0.24,0.66,0.48,1.32,0.72,1.98c0.02,0.05,0.07,0.09,0.13,0.09h2.54
			c0.12,0,0.18-0.13,0.11-0.22c-0.06-0.07-0.11-0.14-0.17-0.21c-0.23-0.29-0.47-0.58-0.74-0.83c-0.06-0.05-0.12-0.11-0.15-0.18
			c-0.03-0.06-0.03-0.12-0.03-0.19c-0.08-1.14-0.17-2.28-0.19-3.42c-0.38-0.12-0.77-0.23-1.12-0.23c-0.06,0-0.11,0-0.16,0.01
			c-0.29,0.04-0.57,0.2-0.75,0.44c-0.07,0.09-0.13,0.17-0.2,0.26C124.67,21.57,124.54,21.73,124.43,21.9z M117.97,18.18
			c0.33-0.21,0.68-0.41,1.03-0.59c0.18-0.09,0.36-0.18,0.54-0.27c0,0.3,0.17,0.68,0.3,0.95c0.1,0.22,0.16,0.41,0.32,0.59
			c0.16,0.19,0.35,0.35,0.51,0.52c0.54,0.6,0.45,1.33,0.36,2.08c-0.1,0.78-0.25,1.55-0.33,2.32c-0.07,0.61-0.07,1.23-0.1,1.85
			c0,0.06,0,0.13-0.01,0.19c0,0.08,0.06,0.15,0.14,0.15h3.21c0.11,0,0.18-0.13,0.11-0.22c-0.2-0.26-0.41-0.52-0.65-0.74
			c-0.05-0.05-0.11-0.09-0.14-0.16c-0.16-0.18,0.02-0.65,0.06-0.85c0.07-0.33,0.16-0.65,0.25-0.97c0.13-0.45,0.26-0.95,0.51-1.35
			c0.17-0.28,0.39-0.53,0.58-0.8c0.25-0.33,0.63-0.56,1.05-0.61c0.6-0.07,1.27,0.19,1.83,0.35c0.63,0.17,1.25,0.36,1.88,0.49
			c1.69,0.36,3.42,0.42,5.13,0.2c0.55-0.06,1.09-0.14,1.63-0.27c0.09-0.02,0.2-0.05,0.29-0.01c0.16,0.06,0.19,0.27,0.24,0.42
			c0.07,0.24,0.15,0.47,0.21,0.72c0.13,0.47,0.25,0.94,0.35,1.42c0.17,0.77,0.31,1.54,0.53,2.3c0.02,0.06,0.07,0.1,0.13,0.1h2.64
			c0.12,0,0.18-0.14,0.11-0.22c-0.34-0.41-0.68-0.82-1.03-1.23c-0.05-0.06-0.1-0.12-0.11-0.19c-0.01-0.05-0.01-0.11,0-0.16
			c0.08-1.1,0.23-2.18,0.36-3.27c0-0.05,0.01-0.1,0.03-0.15c0.05-0.1,0.15-0.1,0.25-0.09c0.25,0.02,0.5,0.05,0.74,0.11
			c0.32,0.09,0.53,0.26,0.77,0.49c0.34,0.33,0.44,0.8,0.84,1.09c0.35,0.25,0.77,0.36,1.12,0.61c0.09,0.07,0.17,0.13,0.23,0.22
			c0.07,0.11,0.11,0.24,0.15,0.37c0.27,0.81,0.97,1.46,1.79,1.69c0.82,0.22,1.74,0.04,2.43-0.47c0.45-0.34,0.82-0.87,0.76-1.43
			c-0.07-0.63-0.63-1.08-0.91-1.65c-0.36-0.73-0.23-1.59-0.27-2.4c-0.02-0.31-0.06-0.61-0.23-0.87c-0.14-0.2-0.35-0.35-0.53-0.52
			c-0.32-0.29-0.55-0.64-0.78-1.01c0.25-0.29,0.48-0.59,0.59-0.95c0.04-0.15,0.06-0.33-0.07-0.42c-0.13-0.1-0.32,0-0.44,0.11
			c-0.19,0.16-0.35,0.36-0.46,0.59c0.02-0.04-0.19-0.36-0.22-0.4c-0.08-0.14-0.16-0.28-0.24-0.41c-0.16-0.23-0.33-0.46-0.53-0.66
			c-0.33-0.33-0.71-0.58-1.07-0.86c-0.37-0.3-0.74-0.6-1.13-0.88c-0.75-0.55-1.55-1.07-2.39-1.49c-1.65-0.82-3.42-1.4-5.23-1.72
			c-3.77-0.65-7.7-0.22-11.23,1.24c-1.02,0.42-2.01,0.97-2.83,1.72c-0.58,0.52-1.02,1.22-1.28,1.98c-0.16,0.39-0.3,0.78-0.45,1.17
			c-0.18,0.43-0.37,0.86-0.65,1.23c-0.17,0.24-0.38,0.46-0.59,0.67c-0.08,0.08-0.15,0.16-0.23,0.24
			C117.77,18.11,117.88,18.24,117.97,18.18z M146.34,19.15c0.08-0.17,0.27-0.24,0.44-0.16c0.16,0.08,0.24,0.28,0.16,0.44
			c-0.07,0.17-0.27,0.24-0.44,0.16C146.34,19.51,146.27,19.31,146.34,19.15z"/>
		<rect x="113.9" y="29.57" class="st3" width="39.04" height="21.11"/>
		<text transform="matrix(1 0 0 1 122.4492 34.823)"><tspan x="0" y="0" class="st4 st5 st6">Hipólito</tspan><tspan x="0.74" y="7.5" class="st4 st7 st6">17 años</tspan><tspan x="-3.28" y="15" class="st4 st8 st9">En Buin Zoo</tspan></text>
		<g>
			<text transform="matrix(1 0 0 1 124.5505 17.9538)" class="st11 st8 st9">Macho</text>
		</g>
	</g>
	<g>
		<path class="st10" d="M32.83,90.97c-0.09,1.34-0.18,2.68-0.27,4.03c0,0.08,0.06,0.15,0.14,0.15h2.26c0.11,0,0.18-0.12,0.12-0.21
			c-0.15-0.24-0.32-0.48-0.5-0.7c-0.03-0.05-0.08-0.1-0.08-0.16c0-0.04,0.01-0.09,0.03-0.13c0.27-0.71,0.54-1.43,0.84-2.13
			c-0.04-0.12-0.07-0.24-0.1-0.35c-0.06-0.22-0.12-0.42-0.19-0.63l-0.03-0.08c0-0.03-0.01-0.06-0.02-0.09c0,0,0-0.01-0.01-0.02
			c-0.57,0.14-1.16,0.22-1.66,0.28C33.18,90.94,33.01,90.96,32.83,90.97z M23.2,91.08c-0.1,0.16-0.17,0.34-0.24,0.53
			c0.03,0.07,0.07,0.13,0.11,0.2c0.2,0.41,0.36,0.84,0.51,1.26c0.24,0.66,0.48,1.32,0.72,1.98c0.02,0.05,0.07,0.09,0.13,0.09h2.54
			c0.12,0,0.18-0.13,0.11-0.22c-0.06-0.07-0.11-0.14-0.17-0.21c-0.23-0.29-0.47-0.58-0.74-0.83c-0.06-0.05-0.12-0.11-0.15-0.18
			c-0.03-0.06-0.03-0.12-0.03-0.19c-0.08-1.14-0.17-2.28-0.19-3.42c-0.38-0.12-0.77-0.23-1.12-0.23c-0.06,0-0.11,0-0.16,0.01
			c-0.29,0.04-0.57,0.2-0.75,0.44c-0.07,0.09-0.13,0.17-0.2,0.26C23.44,90.74,23.31,90.91,23.2,91.08z M16.74,87.35
			c0.33-0.21,0.68-0.41,1.03-0.59c0.18-0.09,0.36-0.18,0.54-0.27c0,0.3,0.17,0.68,0.3,0.95c0.1,0.22,0.16,0.41,0.32,0.59
			c0.16,0.19,0.35,0.35,0.51,0.52c0.54,0.6,0.45,1.33,0.36,2.08c-0.1,0.78-0.25,1.55-0.33,2.32c-0.07,0.61-0.07,1.23-0.1,1.85
			c0,0.06,0,0.13-0.01,0.19c0,0.08,0.06,0.15,0.14,0.15h3.21c0.11,0,0.18-0.13,0.11-0.22c-0.2-0.26-0.41-0.52-0.65-0.74
			c-0.05-0.05-0.11-0.09-0.14-0.16c-0.16-0.18,0.02-0.65,0.06-0.85c0.07-0.33,0.16-0.65,0.25-0.97c0.13-0.45,0.26-0.95,0.51-1.35
			c0.17-0.28,0.39-0.53,0.58-0.8c0.25-0.33,0.63-0.56,1.05-0.61c0.6-0.07,1.27,0.19,1.83,0.35c0.63,0.17,1.25,0.36,1.88,0.49
			c1.69,0.36,3.42,0.42,5.13,0.2c0.55-0.06,1.09-0.14,1.63-0.27c0.09-0.02,0.2-0.05,0.29-0.01c0.16,0.06,0.19,0.27,0.24,0.42
			c0.07,0.24,0.15,0.47,0.21,0.72c0.13,0.47,0.25,0.94,0.35,1.42c0.17,0.77,0.31,1.54,0.53,2.3c0.02,0.06,0.07,0.1,0.13,0.1h2.64
			c0.12,0,0.18-0.14,0.11-0.22c-0.34-0.41-0.68-0.82-1.03-1.23c-0.05-0.06-0.1-0.12-0.11-0.19c-0.01-0.05-0.01-0.11,0-0.16
			c0.08-1.1,0.23-2.18,0.36-3.27c0-0.05,0.01-0.1,0.03-0.15c0.05-0.1,0.15-0.1,0.25-0.09c0.25,0.02,0.5,0.05,0.74,0.11
			c0.32,0.09,0.53,0.26,0.77,0.49c0.34,0.33,0.44,0.8,0.84,1.09c0.35,0.25,0.77,0.36,1.12,0.61c0.09,0.07,0.17,0.13,0.23,0.22
			c0.07,0.11,0.11,0.24,0.15,0.37c0.27,0.81,0.97,1.46,1.79,1.69c0.82,0.22,1.74,0.04,2.43-0.47c0.45-0.34,0.82-0.87,0.76-1.43
			c-0.07-0.63-0.63-1.08-0.91-1.65c-0.36-0.73-0.23-1.59-0.27-2.4c-0.02-0.31-0.06-0.61-0.23-0.87c-0.14-0.2-0.35-0.35-0.53-0.52
			c-0.32-0.29-0.55-0.64-0.78-1.01c0.25-0.29,0.48-0.59,0.59-0.95c0.04-0.15,0.06-0.33-0.07-0.42c-0.13-0.1-0.32,0-0.44,0.11
			c-0.19,0.16-0.35,0.36-0.46,0.59c0.02-0.04-0.19-0.36-0.22-0.4c-0.08-0.14-0.16-0.28-0.24-0.41c-0.16-0.23-0.33-0.46-0.53-0.66
			c-0.33-0.33-0.71-0.58-1.07-0.86c-0.37-0.3-0.74-0.6-1.13-0.88c-0.75-0.55-1.55-1.07-2.39-1.49c-1.65-0.82-3.42-1.4-5.23-1.72
			c-3.77-0.65-7.7-0.22-11.23,1.24c-1.02,0.42-2.01,0.97-2.83,1.72c-0.58,0.52-1.02,1.22-1.28,1.98c-0.16,0.39-0.3,0.78-0.45,1.17
			c-0.18,0.43-0.37,0.86-0.65,1.23c-0.17,0.24-0.38,0.46-0.59,0.67c-0.08,0.08-0.15,0.16-0.23,0.24
			C16.54,87.28,16.65,87.41,16.74,87.35z M45.11,88.32c0.08-0.17,0.27-0.24,0.44-0.17c0.16,0.08,0.24,0.28,0.16,0.44
			c-0.07,0.17-0.27,0.24-0.44,0.16C45.11,88.68,45.03,88.48,45.11,88.32z"/>
		<rect x="12.67" y="99.56" class="st3" width="39.04" height="21.11"/>
		<text transform="matrix(1 0 0 1 18.2061 104.8063)"><tspan x="0" y="0" class="st4 st5 st6">Inocencio</tspan><tspan x="-4.13" y="7.5" class="st4 st7 st6">Nace en 2011</tspan><tspan x="-1.62" y="15" class="st4 st8 st9">Destino: USA</tspan></text>
	</g>
	<g>
		<path class="st10" d="M83.08,90.97c-0.09,1.34-0.18,2.68-0.27,4.03c0,0.08,0.06,0.15,0.14,0.15h2.26c0.11,0,0.18-0.12,0.12-0.21
			c-0.15-0.24-0.32-0.48-0.5-0.7c-0.03-0.05-0.08-0.1-0.08-0.16c0-0.04,0.01-0.09,0.03-0.13c0.27-0.71,0.54-1.43,0.84-2.13
			c-0.04-0.12-0.07-0.24-0.1-0.35c-0.06-0.22-0.12-0.42-0.19-0.63l-0.03-0.08c0-0.03-0.01-0.06-0.02-0.09c0,0,0-0.01-0.01-0.02
			c-0.57,0.14-1.16,0.22-1.66,0.28C83.43,90.94,83.26,90.96,83.08,90.97z M73.45,91.08c-0.1,0.16-0.17,0.34-0.24,0.53
			c0.03,0.07,0.07,0.13,0.11,0.2c0.2,0.41,0.36,0.84,0.51,1.26c0.24,0.66,0.48,1.32,0.72,1.98c0.02,0.05,0.07,0.09,0.13,0.09h2.54
			c0.12,0,0.18-0.13,0.11-0.22c-0.06-0.07-0.11-0.14-0.17-0.21c-0.23-0.29-0.47-0.58-0.74-0.83c-0.06-0.05-0.12-0.11-0.15-0.18
			c-0.03-0.06-0.03-0.12-0.03-0.19c-0.08-1.14-0.17-2.28-0.19-3.42c-0.38-0.12-0.77-0.23-1.12-0.23c-0.06,0-0.11,0-0.16,0.01
			c-0.29,0.04-0.57,0.2-0.75,0.44c-0.07,0.09-0.13,0.17-0.2,0.26C73.68,90.74,73.55,90.91,73.45,91.08z M66.99,87.35
			c0.33-0.21,0.68-0.41,1.03-0.59c0.18-0.09,0.36-0.18,0.54-0.27c0,0.3,0.17,0.68,0.3,0.95c0.1,0.22,0.16,0.41,0.32,0.59
			c0.16,0.19,0.35,0.35,0.51,0.52c0.54,0.6,0.45,1.33,0.36,2.08c-0.1,0.78-0.25,1.55-0.33,2.32c-0.07,0.61-0.07,1.23-0.1,1.85
			c0,0.06,0,0.13-0.01,0.19c0,0.08,0.06,0.15,0.14,0.15h3.21c0.11,0,0.18-0.13,0.11-0.22c-0.2-0.26-0.41-0.52-0.65-0.74
			c-0.05-0.05-0.11-0.09-0.14-0.16c-0.16-0.18,0.02-0.65,0.06-0.85c0.07-0.33,0.16-0.65,0.25-0.97c0.13-0.45,0.26-0.95,0.51-1.35
			c0.17-0.28,0.39-0.53,0.58-0.8c0.25-0.33,0.63-0.56,1.05-0.61c0.6-0.07,1.27,0.19,1.83,0.35c0.63,0.17,1.25,0.36,1.88,0.49
			c1.69,0.36,3.42,0.42,5.13,0.2c0.55-0.06,1.09-0.14,1.63-0.27c0.09-0.02,0.2-0.05,0.29-0.01c0.16,0.06,0.19,0.27,0.24,0.42
			c0.07,0.24,0.15,0.47,0.21,0.72c0.13,0.47,0.25,0.94,0.35,1.42c0.17,0.77,0.31,1.54,0.53,2.3c0.02,0.06,0.07,0.1,0.13,0.1h2.64
			c0.12,0,0.18-0.14,0.11-0.22c-0.34-0.41-0.68-0.82-1.03-1.23c-0.05-0.06-0.1-0.12-0.11-0.19c-0.01-0.05-0.01-0.11,0-0.16
			c0.08-1.1,0.23-2.18,0.36-3.27c0-0.05,0.01-0.1,0.03-0.15c0.05-0.1,0.15-0.1,0.25-0.09c0.25,0.02,0.5,0.05,0.74,0.11
			c0.32,0.09,0.53,0.26,0.77,0.49c0.34,0.33,0.44,0.8,0.84,1.09c0.35,0.25,0.77,0.36,1.12,0.61c0.09,0.07,0.17,0.13,0.23,0.22
			c0.07,0.11,0.11,0.24,0.15,0.37c0.27,0.81,0.97,1.46,1.79,1.69c0.82,0.22,1.74,0.04,2.43-0.47c0.45-0.34,0.82-0.87,0.76-1.43
			c-0.07-0.63-0.63-1.08-0.91-1.65c-0.36-0.73-0.23-1.59-0.27-2.4c-0.02-0.31-0.06-0.61-0.23-0.87c-0.14-0.2-0.35-0.35-0.53-0.52
			c-0.32-0.29-0.55-0.64-0.78-1.01c0.25-0.29,0.48-0.59,0.59-0.95c0.04-0.15,0.06-0.33-0.07-0.42c-0.13-0.1-0.32,0-0.44,0.11
			c-0.19,0.16-0.35,0.36-0.46,0.59c0.02-0.04-0.19-0.36-0.22-0.4c-0.08-0.14-0.16-0.28-0.24-0.41c-0.16-0.23-0.33-0.46-0.53-0.66
			c-0.33-0.33-0.71-0.58-1.07-0.86c-0.37-0.3-0.74-0.6-1.13-0.88c-0.75-0.55-1.55-1.07-2.39-1.49c-1.65-0.82-3.42-1.4-5.23-1.72
			c-3.77-0.65-7.7-0.22-11.23,1.24c-1.02,0.42-2.01,0.97-2.83,1.72c-0.58,0.52-1.02,1.22-1.28,1.98c-0.16,0.39-0.3,0.78-0.45,1.17
			c-0.18,0.43-0.37,0.86-0.65,1.23c-0.17,0.24-0.38,0.46-0.59,0.67c-0.08,0.08-0.15,0.16-0.23,0.24
			C66.78,87.28,66.89,87.41,66.99,87.35z M95.36,88.32c0.08-0.17,0.27-0.24,0.44-0.17c0.16,0.08,0.24,0.28,0.16,0.44
			c-0.07,0.17-0.27,0.24-0.44,0.16C95.36,88.68,95.28,88.48,95.36,88.32z"/>
		<rect x="62.91" y="99.56" class="st3" width="39.04" height="21.11"/>
		<text transform="matrix(1 0 0 1 67.7446 104.8063)"><tspan x="0" y="0" class="st4 st5 st6">Moto Moto</tspan><tspan x="-4.05" y="7.5" class="st4 st7 st6">Nace en 2013</tspan><tspan x="-3.52" y="15" class="st4 st8 st9">Destino: Japón</tspan></text>
	</g>
	<g>
		<path class="st10" d="M133.69,90.97c-0.09,1.34-0.18,2.68-0.27,4.03c0,0.08,0.06,0.15,0.14,0.15h2.26c0.11,0,0.18-0.12,0.12-0.21
			c-0.15-0.24-0.32-0.48-0.5-0.7c-0.03-0.05-0.08-0.1-0.08-0.16c0-0.04,0.01-0.09,0.03-0.13c0.27-0.71,0.54-1.43,0.84-2.13
			c-0.04-0.12-0.07-0.24-0.1-0.35c-0.06-0.22-0.12-0.42-0.19-0.63l-0.03-0.08c0-0.03-0.01-0.06-0.02-0.09c0,0,0-0.01-0.01-0.02
			c-0.57,0.14-1.16,0.22-1.66,0.28C134.05,90.94,133.87,90.96,133.69,90.97z M124.06,91.08c-0.1,0.16-0.17,0.34-0.24,0.53
			c0.03,0.07,0.07,0.13,0.11,0.2c0.2,0.41,0.36,0.84,0.51,1.26c0.24,0.66,0.48,1.32,0.72,1.98c0.02,0.05,0.07,0.09,0.13,0.09h2.54
			c0.12,0,0.18-0.13,0.11-0.22c-0.06-0.07-0.11-0.14-0.17-0.21c-0.23-0.29-0.47-0.58-0.74-0.83c-0.06-0.05-0.12-0.11-0.15-0.18
			c-0.03-0.06-0.03-0.12-0.03-0.19c-0.08-1.14-0.17-2.28-0.19-3.42c-0.38-0.12-0.77-0.23-1.12-0.23c-0.06,0-0.11,0-0.16,0.01
			c-0.29,0.04-0.57,0.2-0.75,0.44c-0.07,0.09-0.13,0.17-0.2,0.26C124.3,90.74,124.17,90.91,124.06,91.08z M117.6,87.35
			c0.33-0.21,0.68-0.41,1.03-0.59c0.18-0.09,0.36-0.18,0.54-0.27c0,0.3,0.17,0.68,0.3,0.95c0.1,0.22,0.16,0.41,0.32,0.59
			c0.16,0.19,0.35,0.35,0.51,0.52c0.54,0.6,0.45,1.33,0.36,2.08c-0.1,0.78-0.25,1.55-0.33,2.32c-0.07,0.61-0.07,1.23-0.1,1.85
			c0,0.06,0,0.13-0.01,0.19c0,0.08,0.06,0.15,0.14,0.15h3.21c0.11,0,0.18-0.13,0.11-0.22c-0.2-0.26-0.41-0.52-0.65-0.74
			c-0.05-0.05-0.11-0.09-0.14-0.16c-0.16-0.18,0.02-0.65,0.06-0.85c0.07-0.33,0.16-0.65,0.25-0.97c0.13-0.45,0.26-0.95,0.51-1.35
			c0.17-0.28,0.39-0.53,0.58-0.8c0.25-0.33,0.63-0.56,1.05-0.61c0.6-0.07,1.27,0.19,1.83,0.35c0.63,0.17,1.25,0.36,1.88,0.49
			c1.69,0.36,3.42,0.42,5.13,0.2c0.55-0.06,1.09-0.14,1.63-0.27c0.09-0.02,0.2-0.05,0.29-0.01c0.16,0.06,0.19,0.27,0.24,0.42
			c0.07,0.24,0.15,0.47,0.21,0.72c0.13,0.47,0.25,0.94,0.35,1.42c0.17,0.77,0.31,1.54,0.53,2.3c0.02,0.06,0.07,0.1,0.13,0.1h2.64
			c0.12,0,0.18-0.14,0.11-0.22c-0.34-0.41-0.68-0.82-1.03-1.23c-0.05-0.06-0.1-0.12-0.11-0.19c-0.01-0.05-0.01-0.11,0-0.16
			c0.08-1.1,0.23-2.18,0.36-3.27c0-0.05,0.01-0.1,0.03-0.15c0.05-0.1,0.15-0.1,0.25-0.09c0.25,0.02,0.5,0.05,0.74,0.11
			c0.32,0.09,0.53,0.26,0.77,0.49c0.34,0.33,0.44,0.8,0.84,1.09c0.35,0.25,0.77,0.36,1.12,0.61c0.09,0.07,0.17,0.13,0.23,0.22
			c0.07,0.11,0.11,0.24,0.15,0.37c0.27,0.81,0.97,1.46,1.79,1.69c0.82,0.22,1.74,0.04,2.43-0.47c0.45-0.34,0.82-0.87,0.76-1.43
			c-0.07-0.63-0.63-1.08-0.91-1.65c-0.36-0.73-0.23-1.59-0.27-2.4c-0.02-0.31-0.06-0.61-0.23-0.87c-0.14-0.2-0.35-0.35-0.53-0.52
			c-0.32-0.29-0.55-0.64-0.78-1.01c0.25-0.29,0.48-0.59,0.59-0.95c0.04-0.15,0.06-0.33-0.07-0.42c-0.13-0.1-0.32,0-0.44,0.11
			c-0.19,0.16-0.35,0.36-0.46,0.59c0.02-0.04-0.19-0.36-0.22-0.4c-0.08-0.14-0.16-0.28-0.24-0.41c-0.16-0.23-0.33-0.46-0.53-0.66
			c-0.33-0.33-0.71-0.58-1.07-0.86c-0.37-0.3-0.74-0.6-1.13-0.88c-0.75-0.55-1.55-1.07-2.39-1.49c-1.65-0.82-3.42-1.4-5.23-1.72
			c-3.77-0.65-7.7-0.22-11.23,1.24c-1.02,0.42-2.01,0.97-2.83,1.72c-0.58,0.52-1.02,1.22-1.28,1.98c-0.16,0.39-0.3,0.78-0.45,1.17
			c-0.18,0.43-0.37,0.86-0.65,1.23c-0.17,0.24-0.38,0.46-0.59,0.67c-0.08,0.08-0.15,0.16-0.23,0.24
			C117.4,87.28,117.51,87.41,117.6,87.35z M145.97,88.32c0.08-0.17,0.27-0.24,0.44-0.17c0.16,0.08,0.24,0.28,0.16,0.44
			c-0.07,0.17-0.27,0.24-0.44,0.16C145.97,88.68,145.9,88.48,145.97,88.32z"/>
		<rect x="113.16" y="99.56" class="st3" width="39.04" height="21.11"/>
		<text transform="matrix(1 0 0 1 124.4038 104.8063)"><tspan x="0" y="0" class="st4 st5 st6">Leufú</tspan><tspan x="-10.28" y="7.5" class="st4 st7 st6">Nace en 2017</tspan><tspan x="-9.94" y="15" class="st4 st8 st9">Destino: Japón</tspan></text>
	</g>
	<g>
		<path class="st2" d="M183.57,90.97c-0.09,1.34-0.18,2.68-0.27,4.03c0,0.08,0.06,0.15,0.14,0.15h2.26c0.11,0,0.18-0.12,0.12-0.21
			c-0.15-0.24-0.32-0.48-0.5-0.7c-0.03-0.05-0.08-0.1-0.08-0.16c0-0.04,0.01-0.09,0.03-0.13c0.27-0.71,0.54-1.43,0.84-2.13
			c-0.04-0.12-0.07-0.24-0.1-0.35c-0.06-0.22-0.12-0.42-0.19-0.63l-0.03-0.08c0-0.03-0.01-0.06-0.02-0.09c0,0,0-0.01-0.01-0.02
			c-0.57,0.14-1.16,0.22-1.66,0.28C183.93,90.94,183.75,90.96,183.57,90.97z M173.94,91.08c-0.1,0.16-0.17,0.34-0.24,0.53
			c0.03,0.07,0.07,0.13,0.11,0.2c0.2,0.41,0.36,0.84,0.51,1.26c0.24,0.66,0.48,1.32,0.72,1.98c0.02,0.05,0.07,0.09,0.13,0.09h2.54
			c0.12,0,0.18-0.13,0.11-0.22c-0.06-0.07-0.11-0.14-0.17-0.21c-0.23-0.29-0.47-0.58-0.74-0.83c-0.06-0.05-0.12-0.11-0.15-0.18
			c-0.03-0.06-0.03-0.12-0.03-0.19c-0.08-1.14-0.17-2.28-0.19-3.42c-0.38-0.12-0.77-0.23-1.12-0.23c-0.06,0-0.11,0-0.16,0.01
			c-0.29,0.04-0.57,0.2-0.75,0.44c-0.07,0.09-0.13,0.17-0.2,0.26C174.18,90.74,174.05,90.91,173.94,91.08z M167.48,87.35
			c0.33-0.21,0.68-0.41,1.03-0.59c0.18-0.09,0.36-0.18,0.54-0.27c0,0.3,0.17,0.68,0.3,0.95c0.1,0.22,0.16,0.41,0.32,0.59
			c0.16,0.19,0.35,0.35,0.51,0.52c0.54,0.6,0.45,1.33,0.36,2.08c-0.1,0.78-0.25,1.55-0.33,2.32c-0.07,0.61-0.07,1.23-0.1,1.85
			c0,0.06,0,0.13-0.01,0.19c0,0.08,0.06,0.15,0.14,0.15h3.21c0.11,0,0.18-0.13,0.11-0.22c-0.2-0.26-0.41-0.52-0.65-0.74
			c-0.05-0.05-0.11-0.09-0.14-0.16c-0.16-0.18,0.02-0.65,0.06-0.85c0.07-0.33,0.16-0.65,0.25-0.97c0.13-0.45,0.26-0.95,0.51-1.35
			c0.17-0.28,0.39-0.53,0.58-0.8c0.25-0.33,0.63-0.56,1.05-0.61c0.6-0.07,1.27,0.19,1.83,0.35c0.63,0.17,1.25,0.36,1.88,0.49
			c1.69,0.36,3.42,0.42,5.13,0.2c0.55-0.06,1.09-0.14,1.63-0.27c0.09-0.02,0.2-0.05,0.29-0.01c0.16,0.06,0.19,0.27,0.24,0.42
			c0.07,0.24,0.15,0.47,0.21,0.72c0.13,0.47,0.25,0.94,0.35,1.42c0.17,0.77,0.31,1.54,0.53,2.3c0.02,0.06,0.07,0.1,0.13,0.1h2.64
			c0.12,0,0.18-0.14,0.11-0.22c-0.34-0.41-0.68-0.82-1.03-1.23c-0.05-0.06-0.1-0.12-0.11-0.19c-0.01-0.05-0.01-0.11,0-0.16
			c0.08-1.1,0.23-2.18,0.36-3.27c0-0.05,0.01-0.1,0.03-0.15c0.05-0.1,0.15-0.1,0.25-0.09c0.25,0.02,0.5,0.05,0.74,0.11
			c0.32,0.09,0.53,0.26,0.77,0.49c0.34,0.33,0.44,0.8,0.84,1.09c0.35,0.25,0.77,0.36,1.12,0.61c0.09,0.07,0.17,0.13,0.23,0.22
			c0.07,0.11,0.11,0.24,0.15,0.37c0.27,0.81,0.97,1.46,1.79,1.69c0.82,0.22,1.74,0.04,2.43-0.47c0.45-0.34,0.82-0.87,0.76-1.43
			c-0.07-0.63-0.63-1.08-0.91-1.65c-0.36-0.73-0.23-1.59-0.27-2.4c-0.02-0.31-0.06-0.61-0.23-0.87c-0.14-0.2-0.35-0.35-0.53-0.52
			c-0.32-0.29-0.55-0.64-0.78-1.01c0.25-0.29,0.48-0.59,0.59-0.95c0.04-0.15,0.06-0.33-0.07-0.42c-0.13-0.1-0.32,0-0.44,0.11
			c-0.19,0.16-0.35,0.36-0.46,0.59c0.02-0.04-0.19-0.36-0.22-0.4c-0.08-0.14-0.16-0.28-0.24-0.41c-0.16-0.23-0.33-0.46-0.53-0.66
			c-0.33-0.33-0.71-0.58-1.07-0.86c-0.37-0.3-0.74-0.6-1.13-0.88c-0.75-0.55-1.55-1.07-2.39-1.49c-1.65-0.82-3.42-1.4-5.23-1.72
			c-3.77-0.65-7.7-0.22-11.23,1.24c-1.02,0.42-2.01,0.97-2.83,1.72c-0.58,0.52-1.02,1.22-1.28,1.98c-0.16,0.39-0.3,0.78-0.45,1.17
			c-0.18,0.43-0.37,0.86-0.65,1.23c-0.17,0.24-0.38,0.46-0.59,0.67c-0.08,0.08-0.15,0.16-0.23,0.24
			C167.28,87.28,167.39,87.41,167.48,87.35z M195.85,88.32c0.08-0.17,0.27-0.24,0.44-0.17c0.16,0.08,0.24,0.28,0.16,0.44
			c-0.07,0.17-0.27,0.24-0.44,0.16C195.85,88.68,195.78,88.48,195.85,88.32z"/>
		<rect x="163.41" y="99.56" class="st3" width="39.04" height="21.11"/>
		<text transform="matrix(1 0 0 1 167.1746 104.8063)"><tspan x="0" y="0" class="st4 st5 st6">Bernardina</tspan><tspan x="-2.99" y="7.5" class="st4 st7 st6">Nace en 2019</tspan><tspan x="1.51" y="15" class="st4 st8 st9">En Buin Zoo</tspan></text>
	</g>
</g>
</svg>
