<?xml version="1.0" encoding="utf-8"?>
<!-- Generator: Adobe Illustrator 22.0.1, SVG Export Plug-In . SVG Version: 6.00 Build 0)  -->
<svg version="1.1" id="Capa_2_1_" xmlns="http://www.w3.org/2000/svg" xmlns:xlink="http://www.w3.org/1999/xlink" x="0px" y="0px"
	 viewBox="0 0 210 60" style="enable-background:new 0 0 210 60;" xml:space="preserve">
<style type="text/css">
	.st0{fill:#1D1D1B;}
	.st1{font-family:'Roboto-Regular';}
	.st2{font-size:6.9608px;}
	.st3{fill:none;stroke:#B1B1B1;stroke-width:0.5;stroke-miterlimit:10;}
	.st4{fill:#ACCE98;}
	.st5{fill:#53AA47;}
	.st6{fill:#6DB159;}
	.st7{fill:none;stroke:#575756;stroke-width:0.5;stroke-miterlimit:10;}
	.st8{fill:#E0DAC4;}
	.st9{fill:#928E8E;}
	.st10{fill:#C6BF95;}
</style>
<text transform="matrix(1 0 0 1 60.1528 31.3587)" class="st0 st1 st2">0</text>
<g>
	<text transform="matrix(1 0 0 1 38.9629 31.3587)" class="st0 st1 st2">años</text>
</g>
<text transform="matrix(1 0 0 1 72.3354 31.3587)" class="st0 st1 st2">5</text>
<text transform="matrix(1 0 0 1 83.29 31.3587)" class="st0 st1 st2">10</text>
<text transform="matrix(1 0 0 1 95.4722 31.3587)" class="st0 st1 st2">15</text>
<text transform="matrix(1 0 0 1 106.8623 31.3587)" class="st0 st1 st2">20</text>
<text transform="matrix(1 0 0 1 119.0454 31.3587)" class="st0 st1 st2">25</text>
<text transform="matrix(1 0 0 1 131.0254 31.3587)" class="st0 st1 st2">30</text>
<text transform="matrix(1 0 0 1 143.208 31.3587)" class="st0 st1 st2">35</text>
<text transform="matrix(1 0 0 1 155.1826 31.3587)" class="st0 st1 st2">40</text>
<text transform="matrix(1 0 0 1 167.3652 31.3587)" class="st0 st1 st2">45</text>
<text transform="matrix(1 0 0 1 179.3574 31.3587)" class="st0 st1 st2">50</text>
<text transform="matrix(1 0 0 1 191.54 31.3587)" class="st0 st1 st2">55</text>
<line class="st3" x1="182.6" y1="21.3" x2="182.6" y2="13.2"/>
<rect x="61.8" y="14.8" class="st4" width="132.9" height="5.2"/>
<g>
	<text transform="matrix(1 0 0 1 165.5791 9.8582)" class="st5 st1 st2">45 a 55 años</text>
</g>
<g>
	<text transform="matrix(1 0 0 1 22.7202 18.7581)" class="st5 st1 st2">Cautiverio</text>
</g>
<rect x="170.5" y="14.8" class="st6" width="24.2" height="5.2"/>
<g>
	<line class="st3" x1="73.9" y1="21.3" x2="73.9" y2="13.2"/>
	<line class="st3" x1="86" y1="21.3" x2="86" y2="13.2"/>
	<line class="st3" x1="98.1" y1="21.3" x2="98.1" y2="13.2"/>
	<line class="st3" x1="110.2" y1="21.3" x2="110.2" y2="13.2"/>
	<line class="st3" x1="122.2" y1="21.3" x2="122.2" y2="13.2"/>
	<line class="st3" x1="134.3" y1="21.3" x2="134.3" y2="13.2"/>
	<line class="st3" x1="146.4" y1="21.3" x2="146.4" y2="13.2"/>
	<line class="st3" x1="158.5" y1="21.3" x2="158.5" y2="13.2"/>
	<line class="st7" x1="61.8" y1="21.3" x2="61.8" y2="13.2"/>
	<line class="st7" x1="194.7" y1="21.3" x2="194.7" y2="13.2"/>
	<line class="st7" x1="170.5" y1="21.3" x2="170.5" y2="13.2"/>
</g>
<line class="st3" x1="146.4" y1="45.2" x2="146.4" y2="37.2"/>
<rect x="61.8" y="38.8" class="st8" width="96.6" height="5.2"/>
<g>
	<text transform="matrix(1 0 0 1 129.2773 54.7395)" class="st9 st1 st2">30 a 40 años</text>
</g>
<g>
	<text transform="matrix(1 0 0 1 4.9238 43.5725)" class="st0 st1 st2">Estado silvestre</text>
</g>
<rect x="134.3" y="38.8" class="st10" width="24.2" height="5.2"/>
<g>
	<g>
		<line class="st3" x1="73.9" y1="45.2" x2="73.9" y2="37.2"/>
		<line class="st3" x1="86" y1="45.2" x2="86" y2="37.2"/>
		<line class="st3" x1="98.1" y1="45.2" x2="98.1" y2="37.2"/>
		<line class="st3" x1="110.2" y1="45.2" x2="110.2" y2="37.2"/>
		<line class="st3" x1="122.2" y1="45.2" x2="122.2" y2="37.2"/>
		<line class="st3" x1="170.5" y1="45.2" x2="170.5" y2="37.2"/>
		<line class="st3" x1="182.6" y1="45.2" x2="182.6" y2="37.2"/>
		<line class="st3" x1="194.7" y1="45.2" x2="194.7" y2="37.2"/>
	</g>
	<line class="st7" x1="61.8" y1="45.2" x2="61.8" y2="37.2"/>
	<line class="st7" x1="158.5" y1="45.2" x2="158.5" y2="37.2"/>
	<line class="st7" x1="134.3" y1="45.2" x2="134.3" y2="37.2"/>
</g>
</svg>
