<?xml version="1.0" encoding="utf-8"?>
<!-- Generator: Adobe Illustrator 26.0.1, SVG Export Plug-In . SVG Version: 6.00 Build 0)  -->
<svg version="1.1" id="Capa_2" xmlns="http://www.w3.org/2000/svg" xmlns:xlink="http://www.w3.org/1999/xlink" x="0px" y="0px"
	 viewBox="0 0 216.57 72" style="enable-background:new 0 0 216.57 72;" xml:space="preserve">
<style type="text/css">
	.st0{fill:#1D1D1B;}
	.st1{font-family:'BarlowSemiCondensed-SemiBold';}
	.st2{font-size:10px;}
	.st3{font-family:'BarlowSemiCondensed-Light';}
	.st4{font-size:7.5px;}
	.st5{fill:none;stroke:#B1B1B1;stroke-width:0.5;stroke-miterlimit:10;}
	.st6{fill:#ACCE98;}
	.st7{fill:#53AA47;}
	.st8{font-family:'BarlowSemiCondensed-Medium';}
	.st9{fill:#6DB159;}
	.st10{fill:none;stroke:#575756;stroke-width:0.5;stroke-miterlimit:10;}
	.st11{fill:#E0DAC4;}
	.st12{fill:#928E8E;}
	.st13{fill:#C6BF95;}
</style>
<g>
	<g>
		<g>
			<text transform="matrix(1 0 0 1 9.9576 13.411)" class="st0 st1 st2">Esperanza de vida</text>
		</g>
	</g>
	<g>
		<g>
			<g>
				<text transform="matrix(1 0 0 1 57.627 42.5457)" class="st0 st3 st4">0</text>
				<g>
					<text transform="matrix(1 0 0 1 41.2915 42.5457)" class="st0 st3 st4">años</text>
				</g>
				<text transform="matrix(1 0 0 1 70.7534 42.5457)" class="st0 st3 st4">5</text>
				<text transform="matrix(1 0 0 1 82.5567 42.5457)" class="st0 st3 st4">10</text>
				<text transform="matrix(1 0 0 1 95.6822 42.5457)" class="st0 st3 st4">15</text>
				<text transform="matrix(1 0 0 1 107.9546 42.5457)" class="st0 st3 st4">20</text>
				<text transform="matrix(1 0 0 1 121.0816 42.5457)" class="st0 st3 st4">25</text>
				<text transform="matrix(1 0 0 1 133.9898 42.5457)" class="st0 st3 st4">30</text>
				<text transform="matrix(1 0 0 1 147.1162 42.5457)" class="st0 st3 st4">35</text>
				<text transform="matrix(1 0 0 1 160.0181 42.5457)" class="st0 st3 st4">40</text>
				<text transform="matrix(1 0 0 1 173.1446 42.5457)" class="st0 st3 st4">45</text>
				<text transform="matrix(1 0 0 1 186.065 42.5457)" class="st0 st3 st4">50</text>
				<text transform="matrix(1 0 0 1 199.1919 42.5457)" class="st0 st3 st4">55</text>
			</g>
		</g>
	</g>
	<g>
		<line class="st5" x1="189.58" y1="32.74" x2="189.58" y2="24.11"/>
		<rect x="59.44" y="25.78" class="st6" width="143.15" height="5.58"/>
		<g>
			<text transform="matrix(1 0 0 1 171.2202 20.4567)" class="st7 st1 st4">45 a 55 años</text>
		</g>
		<g>
			<text transform="matrix(1 0 0 1 24.8369 30.0457)" class="st7 st8 st4">Cautiverio</text>
		</g>
		<rect x="176.57" y="25.78" class="st9" width="26.03" height="5.58"/>
		<g>
			<line class="st5" x1="72.46" y1="32.74" x2="72.46" y2="24.11"/>
			<line class="st5" x1="85.47" y1="32.74" x2="85.47" y2="24.11"/>
			<line class="st5" x1="98.48" y1="32.74" x2="98.48" y2="24.11"/>
			<line class="st5" x1="111.5" y1="32.74" x2="111.5" y2="24.11"/>
			<line class="st5" x1="124.51" y1="32.74" x2="124.51" y2="24.11"/>
			<line class="st5" x1="137.53" y1="32.74" x2="137.53" y2="24.11"/>
			<line class="st5" x1="150.54" y1="32.74" x2="150.54" y2="24.11"/>
			<line class="st5" x1="163.55" y1="32.74" x2="163.55" y2="24.11"/>
			<line class="st10" x1="59.44" y1="32.74" x2="59.44" y2="24.11"/>
			<line class="st10" x1="202.6" y1="32.74" x2="202.6" y2="24.11"/>
			<line class="st10" x1="176.57" y1="32.74" x2="176.57" y2="24.11"/>
		</g>
	</g>
	<g>
		<line class="st5" x1="150.54" y1="55.35" x2="150.54" y2="46.72"/>
		<rect x="59.44" y="48.4" class="st11" width="104.11" height="5.58"/>
		<g>
			<text transform="matrix(1 0 0 1 132.1064 65.582)" class="st12 st8 st4">30 a 40 años</text>
		</g>
		<g>
			<text transform="matrix(1 0 0 1 9.3047 53.5506)" class="st0 st3 st4">Estado silvestre</text>
		</g>
		<rect x="137.53" y="48.4" class="st13" width="26.03" height="5.58"/>
		<g>
			<g>
				<line class="st5" x1="72.46" y1="55.35" x2="72.46" y2="46.72"/>
				<line class="st5" x1="85.47" y1="55.35" x2="85.47" y2="46.72"/>
				<line class="st5" x1="98.48" y1="55.35" x2="98.48" y2="46.72"/>
				<line class="st5" x1="111.5" y1="55.35" x2="111.5" y2="46.72"/>
				<line class="st5" x1="124.51" y1="55.35" x2="124.51" y2="46.72"/>
				<line class="st5" x1="176.57" y1="55.35" x2="176.57" y2="46.72"/>
				<line class="st5" x1="189.58" y1="55.35" x2="189.58" y2="46.72"/>
				<line class="st5" x1="202.6" y1="55.35" x2="202.6" y2="46.72"/>
			</g>
			<line class="st10" x1="59.44" y1="55.35" x2="59.44" y2="46.72"/>
			<line class="st10" x1="163.55" y1="55.35" x2="163.55" y2="46.72"/>
			<line class="st10" x1="137.53" y1="55.35" x2="137.53" y2="46.72"/>
		</g>
	</g>
</g>
</svg>
