<?xml version="1.0" encoding="utf-8"?>
<!-- Generator: Adobe Illustrator 26.0.1, SVG Export Plug-In . SVG Version: 6.00 Build 0)  -->
<svg version="1.1" id="Capa_1" xmlns="http://www.w3.org/2000/svg" xmlns:xlink="http://www.w3.org/1999/xlink" x="0px" y="0px"
	 viewBox="0 0 144.78 82.17" style="enable-background:new 0 0 144.78 82.17;" xml:space="preserve">
<style type="text/css">
	.st0{fill:#020203;}
	.st1{fill:#0A0B0B;}
	.st2{fill:#FFFFFF;}
</style>
<g>
	<path class="st0" d="M142.25,3.91c-11.29,2.27-22.73-3.55-33.92-0.56c-4.33,1.26-8.5,3.86-13.16,3.88
		c-4.65-0.12-8.88,1.62-13.45,2.2c-2.29,0.27-4.58,0.32-6.85,0.48c-4.55,0.28-9,1.41-13.24,3.06c-8.52,3.29-16.36,8.15-24.92,11.38
		C24.61,28.95,9.64,34.98,6.9,49.14c-0.75,4.41,0.35,8.91,1.37,13.33c1.01,4.3,2.47,8.82,6.03,11.63c3.52,2.99,8.62,2.86,11.8-0.59
		c3.16-3.2,4.89-7.58,7.63-11.27c2.68-3.73,5.99-6.99,9.68-9.69l0.06,0.08c-3.61,2.79-6.74,6.17-9.34,9.89
		c-2.64,3.68-4.27,8.08-7.52,11.5c-3.42,3.79-8.96,4.04-12.9,0.83c-3.83-2.9-5.39-7.7-6.45-12.15c-2.78-10.23-2.51-17.89,5.2-25.86
		c6.48-6.75,15.55-9.77,24.05-13.01c8.61-3.06,16.48-7.8,25-11.19c4.25-1.69,8.73-2.9,13.32-3.29c4.6-0.28,9.02-0.75,13.44-2.15
		c2.21-0.61,4.59-0.75,6.86-0.86c4.64-0.09,8.59-2.57,13-3.8C119.44-0.35,131.03,5.47,142.25,3.91L142.25,3.91z"/>
	<path class="st0" d="M10.47,45.24c1.51-0.41,2.94-1.15,3.97-2.21c0,0-0.05,0.06-0.03,0.19c0.03,0.12,0.11,0.17,0.1,0.16
		c-0.14-0.06-0.38-0.16-0.58-0.21c-1.79-0.47-3.67,0.52-4.4,2.24c0,0-0.16-0.25-0.16-0.25c0.37,0.11,0.79,0.13,1.21,0.01
		c-0.34,0.26-0.8,0.41-1.27,0.38l-0.2-0.01c0.19-2.36,2.82-4.04,5.08-3.32C17.86,43.32,11.92,45.72,10.47,45.24L10.47,45.24z"/>
	<g>
		<path class="st1" d="M56.65,34.81c0.76-0.75,0.93-2.08,0.24-2.89c-0.5-0.59-1.31-0.8-2.08-0.92c-0.88-0.13-1.8-0.18-2.63,0.13
			C47.82,32.77,53.96,37.47,56.65,34.81z"/>
		<path class="st0" d="M56.61,34.78c1.05-1.1,0.35-2.72-0.98-3.16c-1.23-0.57-2.98-0.9-4.07,0.14
			C49.45,33.7,55.29,36.48,56.61,34.78L56.61,34.78z M56.68,34.85c-1.1,1.18-3.07,1.48-4.5,0.64c-1.07-0.57-2.31-1.84-1.85-3.22
			c0.17-0.47,0.56-0.78,0.92-0.97c1.48-0.7,3.05-0.69,4.64-0.48C57.95,31.27,57.99,33.61,56.68,34.85L56.68,34.85z"/>
	</g>
	<path class="st0" d="M48.49,35.85c1.29,0.93,2.33,1.8,3.73,2.39c1.44,0.32,2.94-0.46,4.16-1.1c0.84-0.45,1.61-1,2.43-1.69
		l0.08,0.05c-0.81,2.91-4.09,3.76-6.73,3.05c-1.64,0.01-3.35-0.97-3.75-2.65C48.41,35.9,48.49,35.85,48.49,35.85L48.49,35.85z"/>
	<path class="st0" d="M58.45,29.01c-4.07-0.38-5.31-4.13-8.9,0.2c-0.76,0.79-1.63,1.74-2.81,2.11c0,0-0.05-0.08-0.05-0.08
		c1.48-1.7,2.62-4.43,5.23-4.51c2.38,0.09,4.74,0.56,6.57,2.19C58.49,28.92,58.45,29.01,58.45,29.01L58.45,29.01z"/>
	<path class="st0" d="M85.77,31.38c-0.8-4.09,0.05-8.41,4.79-9.3c1.88-0.39,3.67-0.69,5.43-1.47c1.76-0.71,3.66-1.49,5.6-1.02
		c2.14,0.35,3.74,2.52,2.94,4.67c-0.57,1.92-2.21,3.2-3.27,4.73c-1.06,1.53-1.45,3.66-3.2,4.78c-0.86,0.58-1.94,0.38-2.84,0.63
		c-0.83,0.25-1.57,0.9-1.91,1.77c0,0-0.1-0.03-0.1-0.03c0.19-0.95,0.88-1.81,1.83-2.21c0.88-0.36,1.85-0.26,2.59-0.81
		c1.45-1.11,1.68-3.18,2.74-4.72c1.5-2.24,4.45-4.03,3.11-6.79c-2.49-3.46-6.93-0.82-10,0.43c-2.48,0.89-5.63,1.2-6.78,3.9
		c-0.74,1.62-0.77,3.56-0.84,5.43C85.87,31.37,85.77,31.38,85.77,31.38L85.77,31.38z"/>
	<path class="st0" d="M92.91,28.72c-0.29-2.32,1.6-3.99,3.29-5.17c1.09-0.92,1.94-2.18,3.41-2.59c1.12-0.42,2.96,0.1,3.04,1.59
		c0.14,1.18-0.7,2.44-1.82,2.69c0,0-0.04-0.09-0.04-0.09c0.87-0.67,1.37-2.3,0.56-3c-0.91-0.67-2.32-0.11-3.31,0.4
		c-1.23,0.62-2.12,1.76-2.88,2.86c-0.84,1.06-1.64,2.01-2.15,3.32C93.01,28.73,92.91,28.72,92.91,28.72L92.91,28.72z"/>
	<g>
		<path class="st0" d="M54.95,32.03c0.31,0.43,0.51,0.93,0.59,1.45c0.02,0.11,0.02,0.25-0.08,0.31c-0.1,0.05-0.21-0.15-0.1-0.16"/>
		<path class="st2" d="M54.95,32.03c0.79,0.14,1.11,0.8,0.99,1.51c-0.03,0.13-0.09,0.42-0.42,0.49c-0.35,0.05-0.39-0.48-0.16-0.4
			c-0.03,0.12,0.27,0,0.02-0.07c-0.15,0-0.18,0.06-0.21,0.02C54.86,33.1,54.83,32.74,54.95,32.03L54.95,32.03z"/>
	</g>
	<path class="st0" d="M8.42,55.43c-0.42,0.34-0.84,0.44-1.26,0.37c-0.41-0.19-0.81-0.39-1.26-0.14c-0.87,0.38-1.71,0.37-2.51-0.22
		c0,0,0-0.1,0-0.1c0.42-0.32,0.84-0.44,1.26-0.48c0.63-0.09,1.26,0.39,1.88,0.37c0.66-0.29,1.21-0.46,1.88,0.11
		C8.42,55.33,8.42,55.43,8.42,55.43L8.42,55.43z"/>
	<path class="st0" d="M9.02,59.25c-0.66,0.6-1.1,0.46-1.79,0.26c-0.59,0.06-1.08,0.66-1.66,0.73c-0.39,0.06-0.79,0.07-1.28-0.09
		c0,0-0.03-0.09-0.03-0.09c0.52-0.83,1.39-1.08,2.3-0.87c0.22,0.05,0.43,0.08,0.62,0.01c0.59-0.38,1.16-0.6,1.83-0.03
		C9.01,59.15,9.02,59.25,9.02,59.25L9.02,59.25z"/>
	<path class="st0" d="M5.44,63.19c0.14-0.08,0.11-0.22,0.11-0.25c0.06-0.07,0.13-0.14,0.2-0.2c0.68-0.68,1.61-0.79,2.51-0.79
		c0.66-0.1,1.73-0.68,2.36-0.93c0,0-1.18,1.11-1.18,1.11C8.31,63.11,6.81,63.29,5.44,63.19L5.44,63.19z M5.35,63.24
		c0.79-1.22,2.54-1.32,3.83-1.59c0,0,0.18,0.51,0.18,0.51c-0.73-0.12-1.36,0.23-1.92,0.64C6.84,63.09,5.99,63.33,5.35,63.24
		L5.35,63.24z"/>
	<path class="st0" d="M10.51,64.32c-0.46,0.71-0.91,0.64-1.56,0.53c-0.52,0.12-0.86,0.76-1.42,0.88c-0.35,0.08-0.73,0.11-1.19-0.04
		L6.3,65.59c0.21-0.44,0.52-0.69,0.85-0.86c0.55-0.29,1.18,0,1.7-0.19c0.48-0.45,0.9-0.75,1.63-0.32
		C10.49,64.22,10.51,64.32,10.51,64.32L10.51,64.32z"/>
	<path class="st0" d="M11.68,66.36c-0.7,0.6-1.24,0.53-2,0.45c-0.23,0.03-0.42,0.17-0.59,0.34c-0.71,0.72-1.33,1.12-2.38,1.3
		c0,0-0.07-0.07-0.07-0.07c0.11-0.56,0.44-0.97,0.82-1.27c0.59-0.49,1.43-0.36,2.12-0.6c0.61-0.5,1.32-0.8,2.09-0.25
		C11.67,66.26,11.68,66.36,11.68,66.36L11.68,66.36z"/>
	<path class="st0" d="M12.55,68.94c-0.51,0.64-1.05,0.89-1.79,0.86c-0.49,0.04-0.76,0.47-1.04,0.8c-0.47,0.48-0.94,0.87-1.6,1.09
		c0,0-0.28-0.56-0.28-0.56c0.15,0.05,0.6,0.06,0.6,0.26c-0.15,0.15-0.31,0.28-0.47,0.38l-0.91,0.57l0.62-1.13
		c0.45-0.89,1.37-1.32,2.3-1.46c0.49-0.09,0.74-0.58,1.12-0.83c0.42-0.19,0.89-0.27,1.41-0.09L12.55,68.94L12.55,68.94z"/>
	<path class="st0" d="M23.47,76.16c-0.24,0.05-0.4,0.22-0.43,0.37l0.02-0.22c0.39,0.62,0.79,1.2,1.22,1.76
		c0.42,0.56,0.75,1.25,1.33,1.7c0,0-0.25,0.16-0.25,0.16c-0.25-1.34,0.35-3.04-0.17-4.23c-0.03-0.06-0.07-0.13-0.09-0.16
		c-0.02-0.02-0.03-0.02,0.02,0c0.14,0.01,0.05-0.02-0.09,0.05c-0.29,0.11-0.73,0.36-1.25,0.31c-0.18-0.05-0.59,0.17-1,0.23
		c-0.25,0.05-0.71,0.13-0.95,0.21c-0.08,0.03-0.03,0.03-0.06-0.03c-0.01-0.01,0,0,0,0c-0.01,0.06,0.01,0.14-0.08,0.07
		c-0.05-0.11,0.03-0.12,0.08-0.17c0.22-0.16,0.65-0.34,0.9-0.46c0.32-0.13,0.51-0.44,1.09-0.55c0.24-0.07,0.46-0.26,0.82-0.5
		c0.18-0.08,0.48-0.31,0.97-0.13c0.36,0.16,0.47,0.4,0.61,0.69c0.84,1.88-1,3.27-0.38,5.01c-0.73-0.54-1.61-0.92-2.2-1.66
		c-0.52-0.66-0.87-1.46-1-2.29c0,0,0.05-0.06,0.05-0.06C22.79,76,23.56,75.87,23.47,76.16L23.47,76.16z"/>
</g>
</svg>
