<?xml version="1.0" encoding="utf-8"?>
<!-- Generator: Adobe Illustrator 22.0.1, SVG Export Plug-In . SVG Version: 6.00 Build 0)  -->
<svg version="1.1" id="Capa_1" xmlns="http://www.w3.org/2000/svg" xmlns:xlink="http://www.w3.org/1999/xlink" x="0px" y="0px"
	 viewBox="0 0 350 220" style="enable-background:new 0 0 350 220;" xml:space="preserve">
<style type="text/css">
	.st0{fill:#FFFFFF;}
	.st1{fill:none;stroke:#000000;stroke-miterlimit:10;}
	.st2{fill:none;stroke:#000000;stroke-miterlimit:10;stroke-dasharray:5,5;}
</style>
<g>
	<path class="st0" d="M279.3,53.8c-11.3,1.3-22,5.7-33.5,4c-5.5-0.8-11.5-1.4-17.2-0.8c-11.4,1.6-22.4,0.9-33.9-0.3
		c-11.4-1-22.9,0.1-34.1,2.5c-22.4,4.7-43.7,13.2-66.2,17.1c-22.3,4.4-45.8,8.1-64.7,22c-16.5,12.1-22.8,25.5-24,42.2
		c-0.8-0.4-1.6-0.9-2.5-1c-1,0-2.2,0.1-3.3,0.7l0,0.2c1.6,1.6,3.6,2,5.8,1.6c-0.1,2.8-0.2,5.6-0.1,8.6c-2-0.7-4.1-0.4-5.6,1.4
		l0.1,0.2c1.1,0.6,2.1,0.6,3.1,0.7c0.8,0,1.6-0.4,2.5-0.8c0.1,2,0.2,4,0.4,6.1c-0.2,0-0.4,0.1-0.6,0.1c-0.7,0.1-1.5,0.3-2.2,0.7
		c-0.4,0.2-0.7,0.4-1.1,0.6c-0.1,0-0.1,0.1-0.2,0.1c-0.2,0.2-0.5,0.4-0.7,0.6c0.5,0.2,1.1,0.3,1.7,0.3c1,0.2,2.1,0.3,3.2,0.3
		c0.1,1.3,0.2,2.6,0.3,4c-0.5-0.1-0.9-0.1-1.4,0.1c-0.8,0.2-1.7,0.7-2.4,1.7l0.1,0.2c1.1,0.6,2,0.6,2.9,0.6c0.4,0,0.7-0.2,1.1-0.3
		c0.1,1,0.3,2.1,0.4,3.1c-0.8,0-1.7,0.1-2.4,0.5c-1,0.6-2,1.5-2.5,2.8l0.2,0.2c2.1,0,3.6-0.4,5.1-1.3c0.4,1.9,0.8,3.8,1.4,5.6
		C7,178.2,5,179,3.6,180.7l-1.9,2.5l2.5-1c0.1,0,0.2-0.1,0.4-0.1l0,0.1c1.8-0.2,3-1,4.4-2c0.2-0.1,0.4-0.3,0.6-0.5
		c1.6,4.7,3.9,9.1,7.4,12.8c12.9,15.8,29.3,17.6,41.6,18.7c24.8,2.2,49.9,1.2,74.4-3.1c2.3-0.4,4.5-0.8,6.8-1.2
		c4.4-0.8,8.9-1.8,13.3-2.3c28.2-3.1,57.5-5.5,197.9,14.5l-1.4-147.8C321.5,70.5,308.4,51.4,279.3,53.8z"/>
</g>
<g>
	<g>
		<line class="st1" x1="0" y1="201" x2="2.5" y2="201"/>
		<line class="st2" x1="7.5" y1="201" x2="295" y2="201"/>
		<line class="st1" x1="297.5" y1="201" x2="300" y2="201"/>
	</g>
</g>
<g>
	<path d="M279.3,53.8c-11.3,1.3-22,5.7-33.5,4c-5.5-0.8-11.5-1.4-17.2-0.8c-11.4,1.6-22.4,0.9-33.9-0.3c-11.4-1-22.9,0.1-34.1,2.5
		c-22.4,4.7-43.7,13.2-66.2,17.1c-22.3,4.4-45.8,8.1-64.7,22c-16.5,12.1-22.8,25.5-24,42.2c-0.8-0.4-1.6-0.9-2.5-1
		c-1,0-2.2,0.1-3.3,0.7l0,0.2c1.6,1.6,3.6,2,5.8,1.6c-0.1,2.8-0.2,5.6-0.1,8.6c-2-0.7-4.1-0.4-5.6,1.4l0.1,0.2
		c1.1,0.6,2.1,0.6,3.1,0.7c0.8,0,1.6-0.4,2.5-0.8c0.1,2,0.2,4,0.4,6.1c-0.2,0-0.4,0.1-0.6,0.1c-0.7,0.1-1.5,0.3-2.2,0.7
		c-0.4,0.2-0.7,0.4-1.1,0.6c-0.1,0-0.1,0.1-0.2,0.1c-0.2,0.2-0.5,0.4-0.7,0.6c0.5,0.2,1.1,0.3,1.7,0.3c1,0.2,2.1,0.3,3.2,0.3
		c0.1,1.3,0.2,2.6,0.3,4c-0.5-0.1-0.9-0.1-1.4,0.1c-0.8,0.2-1.7,0.7-2.4,1.7l0.1,0.2c1.1,0.6,2,0.6,2.9,0.6c0.4,0,0.7-0.2,1.1-0.3
		c0.1,1,0.3,2.1,0.4,3.1c-0.8,0-1.7,0.1-2.4,0.5c-1,0.6-2,1.5-2.5,2.8l0.2,0.2c2.1,0,3.6-0.4,5.1-1.3c0.4,1.9,0.8,3.8,1.4,5.6
		C7,178.2,5,179,3.6,180.7l-1.9,2.5l2.5-1c0.1,0,0.2-0.1,0.4-0.1l0,0.1c1.8-0.2,3-1,4.4-2c0.2-0.1,0.4-0.3,0.6-0.5
		c1.6,4.7,3.9,9.1,7.4,12.8c12.9,15.8,29.3,17.6,41.6,18.7c24.8,2.2,49.9,1.2,74.4-3.1c2.3-0.4,4.5-0.8,6.8-1.2
		c4.4-0.8,8.9-1.8,13.3-2.3c28.2-3.1,57.5-5.5,197.9,14.5c0,0-131.7-25.7-198-15.5c-4.5,0.7-9,1.5-13.4,2.3
		c-2.3,0.4-4.5,0.8-6.8,1.2c-24.5,4.3-49.4,5.3-74.2,3.1c-12.5-1.1-38.5-5.2-46.8-31.5c1.9,0.4,3.3,0.1,4.8-1.3l-0.3-0.5
		c-1.2-0.7-2.4-0.7-3.5-0.4c-0.5,0.2-0.9,0.6-1.4,0.9c-0.6-2-1.1-4.1-1.5-6.2c0.2,0,0.3-0.1,0.5-0.1c1.8,0.5,3.2,0.9,5.1-0.3
		l-0.1-0.3c-1.6-1.7-3.5-1.2-5.2-0.3c-0.2,0-0.3,0-0.5,0.1c-0.2-1.4-0.4-2.9-0.6-4.3c0.1,0,0.2,0,0.3-0.1c1.6,0.6,2.7,1,4.1-0.6
		c0,0-0.1-0.4-0.1-0.2c-1.7-1.4-2.8-0.8-4.2,0.1c-0.1,0-0.1,0-0.2,0c-0.2-1.5-0.3-3-0.4-4.5c1.1-0.2,2.1-0.5,3.1-1.1l3.3-2.3
		c-1,0.2-2.4,0.6-3.8,1l0-0.2c-0.9,0-1.8,0-2.8,0c-0.1-1.9-0.2-3.9-0.3-5.8c1.2,0.5,2.1,0.7,3.6-0.2l0.1-0.2c-1.2-1.4-2.5-1.4-3.7-1
		c-0.1-2.9-0.2-5.7-0.1-8.5c0.2,0.1,0.5,0.3,0.7,0.5c0.9,0.3,2.1,0.2,3.2-0.4c-1.3-1.6-2.5-1.6-3.8-1.3c0.2-5.1,1-10.1,2.6-14.8
		c12.7-33.7,52-42.3,83.6-48.7c22.5-4.4,43.7-13.1,66.1-17.6c11-2.3,22.4-3.2,33.8-2c5.7,0.6,11.4,1.4,17.1,1.7
		c11.4,0.4,22.6-2,34,0.2c11.5,1.8,22.8-2.8,34-4.1c28.8-2.7,41.4,16.4,70.2,15.4C321.5,70.5,308.4,51.4,279.3,53.8z"/>
	<path d="M31.8,112.4c-5.3-2.7-12.4,0.4-13.9,6.1l0.5,0.1c1.2,0.3,2.4,0.1,3.3-0.4c-0.8,0.1-1.7,0-2.4-0.3c2.6-3.7,7.4-5.1,11.5-3.3
		c0.2,0.1,0.4,0.2,0.6,0.3c-2.9,1.9-6.3,2.9-9.9,3.3C24.9,120.1,40.5,116.6,31.8,112.4z"/>
	<path d="M139.4,111.9c3.8-2.5,4.7-8.3-0.2-10.2c-3.8-1.2-7.7-1.9-11.6-0.8c-1,0.4-2.1,0.9-2.7,2c-1.8,3.2,0.8,6.9,3.2,8.7
		C131.2,114.3,136.3,114.3,139.4,111.9z"/>
	<path d="M118.9,111.1c0,0-0.2,0-0.2,0.2c0.3,4.3,4.2,7.4,8.2,8.1c6.2,2.9,14.6,2.2,17.8-4.7l-0.2-0.1c-2.3,1.3-4.4,2.4-6.7,3.1
		c-3.3,1-7.3,2.3-10.7,0.9C123.9,116.5,121.7,113.9,118.9,111.1z"/>
	<path d="M146.4,98.1c-3.9-4.9-9.5-7-15.3-8.2c-6.4-0.9-10.4,5.5-14.7,9l0.1,0.2c3-0.5,5.6-2.4,7.8-4.1c10.7-9.2,12.1,0.6,22,3.2
		L146.4,98.1z"/>
	<path d="M256.3,93c-4.6-2-9.6-0.9-14.2,0.1c-4.5,1.3-9.1,1.2-13.9,1.4c-12.1,0.2-16,10.5-15.7,20.9c0,0,0.3,0.1,0.1,0
		c0.9-4.5,1.9-9.4,4.3-13c4-6.1,11.8-5.6,18.3-6.7c8-1.8,20-6.4,24.7,3.1c2.1,7.3-5.9,10.5-10.5,15.4c-3.2,3.4-4.7,8.3-8.7,10.5
		c-2.1,1.1-4.4,0.4-6.7,0.9c-2.6,0.6-4.6,2.4-5.5,4.7l0.2,0.1c1.3-2,3.3-3.3,5.5-3.5c2.4-0.3,5,0.6,7.3-0.4c4.8-2,6.7-7.1,9.9-10.4
		c3.3-3.3,7.9-5.8,10.1-10.3C264.4,100.7,261.4,94.7,256.3,93z"/>
	<path d="M251.9,106.4l0.1,0.2c2.9-0.2,5.4-3,5.6-5.9c0.5-3.8-3.9-5.7-6.8-5.2c-3.9,0.5-6.5,3.2-9.5,5c-4.6,2.2-9.9,5.6-10.2,11.4
		c1.8-3.1,4.2-5.1,6.7-7.3c2.3-2.3,5-4.8,8.3-5.8c2.7-0.9,6.4-1.7,8.4,0.4C256.2,101.3,254.4,105.1,251.9,106.4z"/>
</g>
</svg>
