<?xml version="1.0" encoding="utf-8"?>
<!-- Generator: Adobe Illustrator 22.0.1, SVG Export Plug-In . SVG Version: 6.00 Build 0)  -->
<svg version="1.1" id="Capa_1" xmlns="http://www.w3.org/2000/svg" xmlns:xlink="http://www.w3.org/1999/xlink" x="0px" y="0px"
	 viewBox="0 0 350 200" style="enable-background:new 0 0 350 200;" xml:space="preserve">
<style type="text/css">
	.st0{fill:none;stroke:#000000;stroke-miterlimit:10;stroke-dasharray:5;}
</style>
<line class="st0" x1="0" y1="105.8" x2="300" y2="105.8"/>
<path d="M76.4,104.7c18.8-11.7,39.3-20.5,60.3-27.6c10.5-3.6,21.2-6.5,32-9c10.8-2.5,21.8-4.5,32.8-5.9c11-1.3,22.1-2,33.3-2.1
	l8.3,0c2.8,0,5.6,0.2,8.3,0.3c1.4,0.1,2.8,0.1,4.2,0.2l4.2,0.3l4.2,0.4l2.1,0.2l2.1,0.3l8.3,1.1c2.7,0.4,5.5,0.9,8.2,1.4
	c1.4,0.3,2.7,0.4,4.1,0.7l4.1,0.9l4.1,0.9l2,0.4l2,0.5l8,2.2c2.7,0.7,5.3,1.7,7.9,2.5l4,1.3c1.3,0.4,2.6,1,3.9,1.4l7.7,3l-0.1,0.2
	l-7.8-2.7c-1.3-0.4-2.6-0.9-3.9-1.3l-4-1.2c-2.7-0.8-5.3-1.6-8-2.3l-8-2l-2-0.5l-2-0.4l-4.1-0.8l-4.1-0.8c-1.4-0.3-2.7-0.5-4.1-0.7
	c-2.7-0.4-5.5-0.9-8.2-1.3l-8.2-1c-11-1.1-22-1.6-33.1-1.5c-11,0.2-22.1,1-33,2.3c-21.9,2.6-43.6,7.6-64.6,14.4
	c-10.5,3.4-20.9,7.2-31,11.6C96,94.5,86,99.2,76.5,104.9L76.4,104.7z"/>
<path d="M264,100.2c-10-1.5-20.1-2.2-30.2-2.7c-20.2-0.9-40.5-0.6-60.7,0.3c-20.2,0.9-40.4,2.4-60.5,4.8l-3.8,0.5
	c-1.2,0.2-2.5,0.2-3.7,0.3c-2.5,0.2-5,0.4-7.5,0.5c-5,0.3-10.1,0.5-15.1,0.6c-9.4,0.1-18.9-1.2-28.3-2.5c-0.9-0.1-1.6-0.8-1.7-1.6
	c-1.6-8.5-1.6-16.6,0-25.1l0.2-1.3l-1,0.6c-4.7,2.9-8.4,7.1-10.8,12c-2.1,4.2-3.1,8.8-3.1,13.5c0,1.1-0.9,2-2,2.1
	c-1.9,0.1-3.9,0.2-5.8,0.6c-1.3,0.3-2.6,0.7-3.8,1.4c-0.9,0.5-1.9,1.1-2.8,1.8c0,0-0.1,0.1-0.1,0.1c-0.2,0.1-0.4,0.4-0.6,0.7
	c-0.3,0.5-0.7,1.3-1,2.5c-1.2,4-0.9,8.6,0.8,12.6c12,30.8,43.3,29,72.4,19.2c0.5-0.2,1-0.1,1.5,0.1c7.8,3.6,17.3,6.3,25.9,3.5
	c2.1-0.7,4-1.5,6-2.4c0.8-0.4,1.6-0.2,2.2,0.3c7.2,6.3,17.2,10,27.5,10.4c2.7,0.2,5.4,0,8.2-0.4l0,0c0,0,0,0,0,0
	c0.9-0.1,4.9-1.7,10.9,4.5c5.7,4.5,6.4,38,6.4,38c0,0,0,0,0,0c0,0,0,0,0,0c2-8.5,2.2-17.4,0.7-26.1c-0.8-4.3-2.1-8.7-5-12.2
	c-1.4-1.8-3.2-3.8-5.2-4.9c-2-1-3.5-1.3-5.8-1.1c-0.1,0-0.2,0-0.3,0c-3.2,0.7-6.5,1-9.8,0.9c-10.4,0-20.8-3.8-27.8-10.4
	c0.1-0.1,0.2-0.1,0.3-0.2v-0.1l-0.3-0.6c-2.6,1.3-5.3,2.6-8.2,3.5c-8.6,2.6-18.3-0.7-25.8-4.5c-0.4-0.3-0.2-0.3-0.7-0.1
	c-17.4,5.2-37.8,10.1-54.5,1.3c-9.8-5-20.2-21.1-17.1-31.1c0-0.1,0.1-0.3,0.1-0.4c0.8-3,1.8-3.9,2.9-4.6c1.2-0.6,1.8-1.2,3.1-1.4
	c2.6-0.6,5.4-0.6,8.1-0.5h0.1v-0.1c-0.8-8.9,2.9-18.1,9.5-24.1c1.4-1.3,3.6-0.1,3.4,1.8c-0.9,7.4-0.5,14.5,1,22c0,0.1,0,0.3,0,0.4
	v0.9h0.1c10,1.5,20.1,2,30.2,1.9c5.1,0,10.1-0.2,15.2-0.5c5-0.3,10.1-0.6,15.1-1.2c20.1-2.2,40.2-3.8,60.4-4.8
	c20.2-1,40.4-1.4,60.6-0.5c10.1,0.4,20.2,1.2,30.2,2.5c10,1.4,20,3.3,29.6,6.5v-0.1C284,103.7,274,101.7,264,100.2z"/>
</svg>
