<?xml version="1.0" encoding="utf-8"?>
<!-- Generator: Adobe Illustrator 26.0.0, SVG Export Plug-In . SVG Version: 6.00 Build 0)  -->
<svg version="1.1" id="Capa_1" xmlns="http://www.w3.org/2000/svg" xmlns:xlink="http://www.w3.org/1999/xlink" x="0px" y="0px"
	 viewBox="0 0 537.2 180.9" style="enable-background:new 0 0 537.2 180.9;" xml:space="preserve">
<style type="text/css">
	.st0{font-family:'BarlowSemiCondensed-SemiBold';}
	.st1{font-size:10px;}
	.st2{fill:none;}
	.st3{fill:#1E1E1C;}
	.st4{font-family:'BarlowSemiCondensed-Light';}
	.st5{font-size:7.5px;}
	.st6{fill:#A29F9E;}
	.st7{fill:none;stroke:#1E1E1C;stroke-width:0.5;stroke-miterlimit:10;}
	.st8{fill:#D9D4B9;}
	.st9{fill:#9AC583;}
	.st10{fill:#ECE9DC;}
	.st11{fill:none;stroke:#1E1E1C;stroke-width:0.3;stroke-miterlimit:10;}
	.st12{fill:#BFD9AE;}
	.st13{fill:#E0ECD9;}
	.st14{fill:none;stroke:#000000;stroke-width:0.5;stroke-miterlimit:10;}
</style>
<g>
	<g>
		<text transform="matrix(1 0 0 1 201.8758 18.3321)" class="st0 st1">El ciclo estral de la hembra</text>
	</g>
	<rect x="280.6" y="27.1" class="st2" width="28.5" height="15.1"/>
	<text transform="matrix(1 0 0 1 280.5967 32.3955)"><tspan x="0" y="0" class="st3 st4 st5">Ovulación  </tspan><tspan x="0" y="9" class="st3 st0 st5">35,5 días</tspan></text>
	<rect x="280.6" y="47.7" class="st2" width="28.5" height="14.4"/>
	<text transform="matrix(1 0 0 1 280.5965 52.9309)"><tspan x="0" y="0" class="st3 st4 st5">Celo </tspan><tspan x="0" y="9" class="st3 st0 st5">1 a 2 días</tspan></text>
	<g>
		<rect x="291.3" y="77.9" class="st2" width="17.8" height="5.5"/>
		<text transform="matrix(1 0 0 1 291.3108 83.199)" class="st3 st4 st5">= 1 día</text>
		<circle class="st6" cx="284.7" cy="80.7" r="4.1"/>
	</g>
	<line class="st7" x1="277.9" y1="50.3" x2="262.7" y2="50.2"/>
	<g>
		<circle class="st8" cx="206" cy="30" r="4.1"/>
		<circle class="st8" cx="216.2" cy="30" r="4.1"/>
		<circle class="st8" cx="226.6" cy="30" r="4.1"/>
		<circle class="st8" cx="237.5" cy="30" r="4.1"/>
		<circle class="st8" cx="248.1" cy="30" r="4.1"/>
		<circle class="st8" cx="258.5" cy="30" r="4.1"/>
		<circle class="st8" cx="206.1" cy="40.1" r="4.1"/>
		<circle class="st8" cx="216.3" cy="40.1" r="4.1"/>
		<circle class="st8" cx="226.7" cy="40.1" r="4.1"/>
		<circle class="st8" cx="237.6" cy="40.1" r="4.1"/>
		<circle class="st8" cx="248.2" cy="40.1" r="4.1"/>
		<circle class="st8" cx="258.6" cy="40.1" r="4.1"/>
		<circle class="st8" cx="206.1" cy="50.3" r="4.1"/>
		<circle class="st8" cx="216.3" cy="50.3" r="4.1"/>
		<circle class="st8" cx="226.7" cy="50.3" r="4.1"/>
		<circle class="st8" cx="237.6" cy="50.2" r="4.1"/>
		<circle class="st9" cx="248.2" cy="50.2" r="4.1"/>
		<circle class="st9" cx="258.6" cy="50.2" r="4.1"/>
		<circle class="st8" cx="206.1" cy="60.5" r="4.1"/>
		<circle class="st8" cx="216.4" cy="60.5" r="4.1"/>
		<circle class="st8" cx="226.7" cy="60.5" r="4.1"/>
		<circle class="st8" cx="237.7" cy="60.5" r="4.1"/>
		<circle class="st8" cx="248.2" cy="60.4" r="4.1"/>
		<circle class="st8" cx="258.6" cy="60.5" r="4.1"/>
		<circle class="st8" cx="206.2" cy="70.6" r="4.1"/>
		<circle class="st8" cx="216.5" cy="70.6" r="4.1"/>
		<circle class="st8" cx="226.8" cy="70.6" r="4.1"/>
		<circle class="st8" cx="237.8" cy="70.5" r="4.1"/>
		<circle class="st8" cx="248.3" cy="70.5" r="4.1"/>
		<circle class="st8" cx="258.7" cy="70.5" r="4.1"/>
		<circle class="st8" cx="206.2" cy="80.7" r="4.1"/>
		<circle class="st8" cx="216.5" cy="80.7" r="4.1"/>
		<circle class="st8" cx="226.8" cy="80.7" r="4.1"/>
		<circle class="st8" cx="237.8" cy="80.7" r="4.1"/>
		<circle class="st8" cx="248.3" cy="80.6" r="4.1"/>
		<g>
			<circle class="st10" cx="258.7" cy="80.6" r="4.1"/>
			<path class="st8" d="M258.7,84.7c-2.3,0-4.1-1.8-4.1-4.1s1.8-4.1,4.1-4.1V84.7z"/>
		</g>
	</g>
</g>
<line class="st11" x1="327.7" y1="9.4" x2="327.7" y2="84.8"/>
<g>
	<rect x="13.5" y="155.1" class="st2" width="73.6" height="14.6"/>
	<text transform="matrix(1 0 0 1 20.302 160.3158)"><tspan x="0" y="0" class="st3 st4 st5">Período de gestación </tspan><tspan x="5.2" y="9" class="st3 st4 st5">entre 6 y 7 meses</tspan></text>
	<rect x="88.8" y="155.1" class="st2" width="84.4" height="14.6"/>
	<text transform="matrix(1 0 0 1 92.6009 160.3158)"><tspan x="0" y="0" class="st3 st4 st5">La cría se amamanta hasta </tspan><tspan x="10.7" y="9" class="st3 st4 st5">los 8 meses de vida</tspan></text>
	<rect x="287.8" y="155.1" class="st2" width="84.4" height="14.6"/>
	<text transform="matrix(1 0 0 1 290.1414 160.3158)"><tspan x="0" y="0" class="st3 st4 st5">Durante 3 años se mantiene </tspan><tspan x="6.9" y="9" class="st3 st4 st5">al cuidado de su madre</tspan></text>
	<rect x="475.3" y="155.1" class="st2" width="53.3" height="14.6"/>
	<text transform="matrix(1 0 0 1 478.5911 160.3158)"><tspan x="0" y="0" class="st3 st4 st5">Independencia y </tspan><tspan x="1" y="9" class="st3 st4 st5">madurez sexual</tspan></text>
	<g>
		<text transform="matrix(1 0 0 1 11.2998 104.1298)" class="st0 st1">Desarrollo de la cría</text>
	</g>
	<g>
		<g>
			<rect x="13.5" y="136.6" class="st8" width="9.1" height="9.1"/>
			<rect x="24.3" y="136.6" class="st8" width="9.1" height="9.1"/>
			<rect x="35" y="136.6" class="st8" width="9.1" height="9.1"/>
			<rect x="45.8" y="136.6" class="st8" width="9.1" height="9.1"/>
			<rect x="56.5" y="136.6" class="st8" width="9.1" height="9.1"/>
			<rect x="67.3" y="136.6" class="st8" width="9.1" height="9.1"/>
			<rect x="78.1" y="136.6" class="st8" width="9.1" height="9.1"/>
			<rect x="88.8" y="136.6" class="st9" width="9.1" height="9.1"/>
			<rect x="99.6" y="136.6" class="st9" width="9.1" height="9.1"/>
			<rect x="110.3" y="136.6" class="st9" width="9.1" height="9.1"/>
			<rect x="121.1" y="136.6" class="st9" width="9.1" height="9.1"/>
			<rect x="131.8" y="136.6" class="st9" width="9.1" height="9.1"/>
			<rect x="142.6" y="136.6" class="st9" width="9.1" height="9.1"/>
			<rect x="153.3" y="136.6" class="st9" width="9.1" height="9.1"/>
			<rect x="164.1" y="136.6" class="st9" width="9.1" height="9.1"/>
			<rect x="174.8" y="136.6" class="st12" width="9.1" height="9.1"/>
			<rect x="185.6" y="136.6" class="st12" width="9.1" height="9.1"/>
			<rect x="196.4" y="136.6" class="st12" width="9.1" height="9.1"/>
			<rect x="207.1" y="136.6" class="st12" width="9.1" height="9.1"/>
			<rect x="217.9" y="136.6" class="st12" width="9.1" height="9.1"/>
			<rect x="228.6" y="136.6" class="st12" width="9.1" height="9.1"/>
			<rect x="239.4" y="136.6" class="st12" width="9.1" height="9.1"/>
			<rect x="250.1" y="136.6" class="st12" width="9.1" height="9.1"/>
			<rect x="260.9" y="136.6" class="st12" width="9.1" height="9.1"/>
			<rect x="271.6" y="136.6" class="st12" width="9.1" height="9.1"/>
			<rect x="282.4" y="136.6" class="st12" width="9.1" height="9.1"/>
			<rect x="293.2" y="136.6" class="st12" width="9.1" height="9.1"/>
			<rect x="303.9" y="136.6" class="st12" width="9.1" height="9.1"/>
			<rect x="314.7" y="136.6" class="st12" width="9.1" height="9.1"/>
			<rect x="325.4" y="136.6" class="st12" width="9.1" height="9.1"/>
			<rect x="336.2" y="136.6" class="st12" width="9.1" height="9.1"/>
			<rect x="346.9" y="136.6" class="st12" width="9.1" height="9.1"/>
			<rect x="357.7" y="136.6" class="st12" width="9.1" height="9.1"/>
			<rect x="368.4" y="136.6" class="st12" width="9.1" height="9.1"/>
			<rect x="379.2" y="136.6" class="st12" width="9.1" height="9.1"/>
			<rect x="390" y="136.6" class="st12" width="9.1" height="9.1"/>
			<rect x="400.7" y="136.6" class="st12" width="9.1" height="9.1"/>
			<rect x="411.5" y="136.6" class="st12" width="9.1" height="9.1"/>
			<rect x="422.2" y="136.6" class="st12" width="9.1" height="9.1"/>
			<rect x="433" y="136.6" class="st12" width="9.1" height="9.1"/>
			<rect x="443.7" y="136.6" class="st12" width="9.1" height="9.1"/>
			<rect x="454.5" y="136.6" class="st12" width="9.1" height="9.1"/>
			<rect x="465.2" y="136.6" class="st12" width="9.1" height="9.1"/>
			<rect x="476" y="136.6" class="st13" width="9.1" height="9.1"/>
			<rect x="486.8" y="136.6" class="st13" width="9.1" height="9.1"/>
			<rect x="497.5" y="136.6" class="st13" width="9.1" height="9.1"/>
			<polyline class="st13" points="508.3,145.7 508.3,136.6 517.3,136.6 517.3,145.7 			"/>
		</g>
		<g>
			<text transform="matrix(1 0 0 1 16.7134 126.9691)" class="st3 st0 st5">Embarazo</text>
		</g>
		<g>
			<g>
				<line class="st7" x1="13.5" y1="124.2" x2="13.5" y2="145.7"/>
				<g>
					<path class="st3" d="M12.6,124.2c0-0.5,0.4-0.9,0.9-0.9s0.9,0.4,0.9,0.9c0,0.5-0.4,0.9-0.9,0.9S12.6,124.7,12.6,124.2z"/>
				</g>
			</g>
		</g>
		<g>
			<text transform="matrix(1 0 0 1 92.001 126.9691)" class="st3 st0 st5">Nacimiento</text>
		</g>
		<g>
			<g>
				<line class="st7" x1="88.8" y1="124.2" x2="88.8" y2="145.7"/>
				<g>
					<path class="st3" d="M87.9,124.2c0-0.5,0.4-0.9,0.9-0.9s0.9,0.4,0.9,0.9c0,0.5-0.4,0.9-0.9,0.9S87.9,124.7,87.9,124.2z"/>
				</g>
			</g>
		</g>
		<g>
			<text transform="matrix(1 0 0 1 178.043 126.9691)" class="st3 st0 st5">Destete</text>
		</g>
		<g>
			<g>
				<line class="st7" x1="174.8" y1="124.2" x2="174.8" y2="145.7"/>
				<g>
					<path class="st3" d="M173.9,124.2c0-0.5,0.4-0.9,0.9-0.9s0.9,0.4,0.9,0.9c0,0.5-0.4,0.9-0.9,0.9S173.9,124.7,173.9,124.2z"/>
				</g>
			</g>
		</g>
		<g>
			<text transform="matrix(1 0 0 1 479.1906 126.9691)" class="st3 st0 st5">Adultez</text>
		</g>
		<g>
			<g>
				<line class="st7" x1="476" y1="124.2" x2="476" y2="145.7"/>
				<g>
					<path class="st3" d="M475.1,124.2c0-0.5,0.4-0.9,0.9-0.9s0.9,0.4,0.9,0.9c0,0.5-0.4,0.9-0.9,0.9S475.1,124.7,475.1,124.2z"/>
				</g>
			</g>
		</g>
	</g>
	<g>
		<g>
			<rect x="110.9" y="98.7" class="st2" width="20.9" height="5.5"/>
			<text transform="matrix(1 0 0 1 110.8936 103.958)" class="st3 st4 st5">= 1 mes</text>
		</g>
		<rect x="100.2" y="97.4" class="st6" width="8.2" height="8.2"/>
	</g>
	<g>
		<g>
			<line class="st14" x1="499.8" y1="141.1" x2="521.8" y2="141.1"/>
			<g>
				<polygon points="521.1,143.6 525.4,141.1 521.1,138.6 				"/>
			</g>
		</g>
	</g>
</g>
</svg>
