<?xml version="1.0" encoding="UTF-8"?>
<svg enable-background="new 0 0 131.61 80.32" version="1.1" viewBox="0 0 131.61 80.32" xml:space="preserve" xmlns="http://www.w3.org/2000/svg">
<style type="text/css">
	.st0{fill:none;}
</style>
	<path d="m44.21 46.5c1.07-12.76-5.7-8.81-12.09-16.55-1.2-1.39-2.14-2.92-2.9-4.63-0.44-0.85-1.04-1.68-1.91-2.21-0.63-0.4-1.36-0.61-2.11-0.59-0.13 0.22-0.27 0.43-0.4 0.66 0 0-0.47-0.55-0.47-0.55 0.29-0.07 0.58-0.11 0.86-0.11 4.15-6.95 12.83-8.37 19.5-3.9 2.06 1.51 3.62 3.88 5.55 5.63 6.43 6.41 13.96 11.96 22.44 15.33-5.88-2.98-12.03-6.58-16.98-11.24-1.66-1.49-3.45-3.16-4.94-4.67-2-1.84-3.38-4.1-5.6-5.74-7.7-5.24-17.54-2.91-21.46 5.68l0.88-0.25c1.68-0.48 3.31 0.76 4.05 2.27 0.77 1.66 1.82 3.3 3.07 4.68 1.88 2.09 4.17 3.77 6.64 5.08 1.61 0.84 3.44 1.44 4.38 3.09 1.47 2.36 1.36 5.3 1.16 7.99-0.39 3.67-0.55 7.39-0.77 11.08-0.03 0.5-0.05 0.99-0.07 1.49 0.14 0 0.28 0 0.42 0.01 0.12-4.19 0.4-8.38 0.75-12.55z"/>
	<path d="m24.33 22.62s0.47 0.55 0.47 0.55c0.12-0.23 0.26-0.44 0.4-0.66-0.29 0.01-0.58 0.04-0.87 0.11z"/>
	<path d="m71.74 38.94c0.1-1.11 1.15-1.93 2.2-2.18 1.09-0.29 2.25-0.02 3.23 0.38 1.93 0.87 3.67 1.76 5.71 2.25 3.96 1.16 8.19 1.1 12.28 0.6 2.06-0.23 4.14-0.44 6.24-0.47 1.58 0.04 3.42-0.2 4.85 0.82 2.78 2.64 0.99 7.91-0.28 10.87-0.4 0.95-0.99 1.87-0.69 2.88l-0.09 0.04c-0.25-0.48-0.24-1.07-0.13-1.59 0.96-3.28 2.34-7 1.25-10.34-0.68-1.95-3.17-1.62-4.91-1.74-2.05-0.03-4.12 0.03-6.2 0.07-4.17 0.04-8.36 0.43-12.5-0.34-2.06-0.36-4.02-1.41-5.82-2.35-0.91-0.41-1.85-0.75-2.81-0.57-0.94 0.14-1.93 0.68-2.21 1.69l-0.12-0.02z"/>
	<path d="m34.22 33.97c-0.98 0.46-1.46 1.43-2.06 2.26-0.56 0.85-1 1.77-0.78 2.56l-0.77-0.28c0.95-0.72 1.95-1.03 2.47-2.14 0.27-0.54 0.68-1.09 1.18-1.46 0.48-0.41 1.35-0.58 1.77-0.07-0.56-0.27-1.11 0.04-1.42 0.45-0.8 0.89-0.86 2.3-1.95 3.02-0.72 0.54-1.39 0.94-2.07 1.43 0 0-0.17-0.7-0.17-0.7-0.31-1.24 0.37-2.4 1.14-3.27 0.71-0.77 1.53-1.73 2.66-1.8z"/>
	<path d="m31.44 34.84c-0.97 1.04-1.79 1.93-2.61 2.99-0.07-0.91-0.35-1.91-0.04-2.85 0.17-0.57 0.65-1.11 1.24-1.15-0.68 0.88-0.43 1.7-0.34 2.71l-0.87-0.27c0.66-0.76 1.58-1.34 2.62-1.43z"/>
	<path d="m31.07 34.43c-4.09-1.62-8.09-6.48-6.51-11.01 0.1-0.15 0.21-0.34 0.4-0.37-0.18 0.05-0.27 0.24-0.34 0.4-0.97 4.43 2.87 8.83 6.45 10.98z"/>
	<path d="m60.94 38.92c0.41 0.71-0.46 1.51-1.18 1.38-0.72-0.12-1.33-0.55-1.68-1.19-0.42-0.87 0.38-1.65 1.26-1.46 0.73 0.1 1.3 0.68 1.6 1.27zm-0.05 0.02c-0.14-0.3-0.46-0.45-0.75-0.55-0.5-0.13-1.18-0.38-1.6-0.09-0.4 0.38-0.19 1.2 0.33 1.45 0.53 0.32 2.42 0.13 2.02-0.81z"/>
	<path d="m58.22 37.41c0.33-0.47 0.92-0.48 1.38-0.25 0.49 0.08 1.04 0.09 1.4 0.49 0.17 0.2 0.5 0.69 0.4 0.92-0.79-0.35-1.05-1.06-1.83-1.25-0.47 0.08-0.81 0.2-1.34 0.13 0.02 0-0.01-0.04-0.01-0.04z"/>
	<path d="m58.28 37.06c-1.3-0.42-0.47-1.54 0.53-1.43 0.75 0.08 1.39 0.41 2.12 0.57 1.48 0.26 2.67 1.96 2.14 3.43-0.21-0.62-0.31-1.35-0.75-1.89-0.72-1.04-2.17-1.94-3.49-1.7-0.71 0.07-1.26 0.3-0.52 0.97 0 0-0.03 0.05-0.03 0.05z"/>
	<path d="m57.39 38.75c0.61 0.62 0.8 1.4 1.18 2.12 0.91 0.97 2.35 1.06 3.62 1.03l0.02 0.05c-1.26 0.93-2.95 0.19-3.76-0.97-0.6-0.56-1.12-1.45-1.06-2.23z"/>
	<path class="st0" d="m73.74 50.01c1.08 0.15 2.15 0.3 3.21 0.53 0.66 0.14 1.31 0.32 1.91 0.64 0.9 0.48 1.62 1.28 2.01 2.22 0.07 0.16 0.12 0.34 0.07 0.5-0.04 0.14-0.15 0.25-0.26 0.35-1.06 0.99-2.29 1.85-3.7 2.18s-3.02 0.08-4.06-0.93c-0.19-0.19-0.37-0.4-0.46-0.65-0.11-0.29-0.1-0.61-0.2-0.9-0.19-0.53-0.71-0.85-1.2-1.14-0.38-0.22-0.79-0.53-0.79-0.97 0.01-0.48 0.51-0.78 0.97-0.91 0.39-0.11 0.79-0.17 1.19-0.17"/>
	<path class="st0" d="m75.57 48.62c-1.26 0.71-2.88 0.36-4.23 0.88-0.48 0.19-0.92 0.49-1.27 0.86-0.44 0.48-0.75 1.16-0.53 1.77"/>
	<path d="m74.02 49.93c1.62 0.27 3.22 0.27 4.79 0.86 1.24 0.61 1.63 1.91 1.97 3.14 0.08 0.47-0.61 0.78-0.9 1.06-0.65 0.49-1.37 0.95-2.2 1.16-0.84 0.25-1.72 0-2.46-0.05-0.59-0.1-1.2 0.39-1.82 0.16-0.44-0.19-0.7-0.7-0.56-1.16 0.23-0.64 0.98-0.76 1.38-1.21 0.01-0.01 0.01-0.01 0.02-0.01l0.44 0.05c0.03-0.01-0.54 0.01-0.42-0.01-0.39 0.56-1.57 0.9-1.12 1.73 0.49 0.81 1.35-0.06 2.09 0.05 0.86 0.02 1.6 0.25 2.33 0 1-0.27 1.89-1.01 2.71-1.65 0.04-0.05 0.03-0.02 0.03-0.07-0.26-1.03-0.67-2.33-1.67-2.86-1.4-0.61-3.11-0.74-4.61-1.19z"/>
	<path d="m73.7 52.99c-0.58 0.16-1.33 0.08-1.68-0.5-0.15-0.28-0.23-0.77 0.12-0.94 1.31-0.59 2.96-0.85 4.16 0.11l-0.02 0.05c-0.59-0.01-5.1-0.74-3.92 0.54 0.34 0.47 1.21 0.54 1.34 0.74z"/>
	<path d="m59.1 39.7c-0.52 0-0.93-0.31-0.93-0.7s0.41-0.7 0.93-0.7 0.93 0.31 0.93 0.7-0.41 0.7-0.93 0.7zm0-0.9c-0.27 0-0.43 0.13-0.43 0.2s0.17 0.2 0.43 0.2 0.43-0.13 0.43-0.2-0.16-0.2-0.43-0.2z"/>
	<path d="m41.38 52.06c0.34-3.38-0.05-6.83-1.18-10 0.77 3.27 0.93 6.64 0.46 9.91-0.33 2.37-1.24 4.65-1.63 7.01"/>
	<path d="m41.76 40.84c-0.49 0.38-0.98 0.6-1.56 0.71-0.67-0.01-1.3 0.02-1.75 0.62 0 0-0.19-0.29-0.19-0.29-0.45-0.65 0.04-1.5 0.34-2 0.17-0.25 0.2-0.41 0.34-0.72 0.12-0.37 0.66-0.76 1.03-0.48-0.02 0.17-0.18 0.09-0.25 0.37-0.03 0.41 0.06 0.94-0.19 1.34-0.29 0.56-0.72 0.77-0.82 1.32l-0.34-0.13c0.94-0.11 1.46-1.11 2.45-1.02 0.3 0 0.61 0.04 0.92 0.19l0.02 0.09z"/>
	<path d="m38.63 39.32c-0.74 0.94-1.79 1.41-2.78 1.94l0.26-1.08c0.2-1.13 2.17-3.8 1.3-0.98-0.11 0.42-0.22 0.83-0.35 1.24l-0.69-0.57c0.7-0.31 1.42-0.55 2.26-0.55z"/>
	<path d="m76.31 50.3c0.25-0.61 1.01-0.88 1.58-0.54-0.55 0.37-0.92 0.49-1.58 0.54z"/>
	<path d="m77.75 50.68c0.38-0.47 1.1-0.91 1.67-0.43-0.58 0.22-1.09 0.6-1.67 0.43z"/>
	<path d="m79.25 51.29c0.55-0.39 1.24-0.36 1.75 0.08-0.64 0.24-1.15 0.21-1.75-0.08z"/>
	<path d="m79.82 52.11c0.65-0.3 1.39-0.26 2 0.11-0.72 0.31-1.33 0.27-2-0.11z"/>
	<path d="m80.17 53c0.66-0.21 1.27-0.09 1.79 0.37-0.66 0.22-1.27 0.09-1.79-0.37z"/>
	<path d="m80.6 54.05c0.58-0.12 1.14 0.12 1.45 0.63-0.64 0.1-1.08-0.1-1.45-0.63z"/>
	<path d="m80.13 54.67c0.58-0.05 0.95 0.09 1.33 0.54-0.54 0.23-1.1 0-1.33-0.54z"/>
	<path d="m79.18 55.11c0.79 0.12 1.32 0.3 2.02 0.7-0.73 0.32-1.63 0-2.02-0.7z"/>
	<path d="m78.36 55.76c0.67 0 1.11 0.17 1.61 0.62-0.63 0.23-1.3-0.03-1.61-0.62z"/>
	<path d="m77.51 56.07c0.73 0.12 1.22 0.47 1.55 1.13-0.69-0.08-1.26-0.5-1.55-1.13z"/>
	<path d="m76.05 56.11c0.7 0.33 1.13 0.66 1.63 1.24-0.76 0.08-1.49-0.48-1.63-1.24z"/>
	<path d="m74.59 56c0.81 0.39 1.26 0.92 1.87 1.56-0.9 0-1.6-0.74-1.87-1.56z"/>
	<path d="m76.07 52.36c1.06-0.44 2.74-0.26 3.17 1 0.02 0.1 0.04 0.25-0.04 0.33-0.83 0.75-2.07 0.95-3.12 0.64-0.36-0.16-0.95-0.26-0.89-0.33l0.14 0.07-0.16-0.02-0.2-0.02c0.38-0.08 0.79-0.01 1.16 0.04 0.88 0.11 1.81-0.11 2.54-0.59l0.09-0.06c0.03-0.02 0.08-0.06 0.03-0.01 0 0.03-0.05 0.08-0.02 0.1-0.38-1.04-1.73-1.22-2.7-1.15z"/>
	<path d="m28.71 28.02l-0.66 0.86-0.31 0.43c-0.11 0.15-0.25 0.34-0.54 0.42-0.3 0.09-0.61-0.11-0.72-0.32-0.43-0.62 0.25-1.34 0.8-1.47 0 0 0.03 0.1 0.03 0.1-0.07-0.01-0.15-0.02-0.23-0.04 0.12-0.05 0.27-0.08 0.39-0.11-0.27 0.28-0.66 0.6-0.68 0.93-0.04 0.23 0.19 0.5 0.29 0.43 0.41-0.26 0.98-1.02 1.63-1.23z"/>
	<path d="m25.89 26.5l-0.66 0.86-0.31 0.43c-0.11 0.15-0.25 0.34-0.54 0.42-0.3 0.09-0.61-0.11-0.72-0.32-0.43-0.62 0.25-1.34 0.8-1.47 0 0 0.03 0.1 0.03 0.1-0.07-0.01-0.15-0.02-0.23-0.04 0.12-0.05 0.27-0.08 0.39-0.11-0.27 0.28-0.66 0.6-0.68 0.93-0.04 0.23 0.19 0.5 0.29 0.43 0.41-0.25 0.99-1.01 1.63-1.23z"/>
	<path d="m34.03 19.25c0.06 0.24 0.13 0.5 0.33 0.64 0.02 0.01 0.04 0.03 0.07 0.03 0.08 0 0.1-0.11 0.1-0.18-0.02-0.39-0.06-2.23-0.49-2.4"/>
	<path d="m35.68 19.58c0.05 0.07 0.09 0.14 0.14 0.22 0.03 0.04 0.07 0.09 0.12 0.07 0.03-0.01 0.04-0.06 0.04-0.09 0.06-0.56-0.02-1.13-0.09-1.69"/>
	<path d="m37.23 18.3c-0.03 0.45-0.06 0.9-0.08 1.35 0 0.04 0 0.08 0.02 0.11 0.04 0.04 0.11 0.03 0.15-0.01s0.05-0.1 0.06-0.16"/>
	<path d="m29.98 21.14c0.03 0.02 0.07 0.04 0.1 0.03 0.02-0.01 0.04-0.03 0.05-0.06 0.08-0.19 0.05-0.42-0.03-0.61s-0.21-0.36-0.34-0.52"/>
	<path d="m30.6 19.39c0.25 0.54 0.52 1.05 0.89 1.53 0.06 0.08 0.17 0.17 0.26 0.12 0.01-0.36-0.16-0.7-0.36-1s-0.44-0.58-0.58-0.91"/>
	<path d="m32.06 18.51c0.08 0.58 0.29 1.14 0.59 1.64 0.06 0.09 0.14 0.2 0.25 0.19 0.11 0 0.19-0.12 0.19-0.23s-0.05-0.21-0.1-0.31c-0.16-0.32-0.33-0.65-0.41-1"/>
	<path d="m39.11 17.95c-0.44 0.31-0.32 1.65-0.36 2.14 0 0.04-0.01 0.08 0.01 0.11 0.03 0.06 0.11 0.08 0.17 0.05 0.06-0.02 0.11-0.08 0.14-0.14 0.14-0.24 0.16-0.53 0.22-0.81"/>
	<path d="m41.03 18.36c-0.38 0.5-0.7 1.05-0.95 1.63-0.04 0.1-0.08 0.21-0.07 0.32 0.21 0.06 0.4-0.14 0.55-0.29 0.17-0.18 0.35-0.33 0.55-0.47"/>
	<path d="m43.35 19.2c-0.66-0.07-2.08 1.15-2.02 1.77 0.19 0.04 0.33-0.1 0.47-0.21 0.51-0.39 1.07-0.54 1.5-1.05 0.21-0.25 0.45-0.47 0.05-0.51"/>
</svg>
