<?xml version="1.0" encoding="UTF-8"?>
<svg enable-background="new 0 0 131.61 80.32" version="1.1" viewBox="0 0 131.61 80.32" xml:space="preserve" xmlns="http://www.w3.org/2000/svg">
	<path d="m46.67 24.08c-0.03 0.5-0.05 0.99-0.07 1.49 0.14 0 0.28 0 0.42 0.01"/>
	<path d="m36.67 60.62c0.43 0.6 1.01 0.9 1.64 1.06-0.31-0.45-0.56-0.93-0.73-1.44 0.01 0-0.91 0.38-0.91 0.38z"/>
	<path d="m90.25 71.03c-2.39 0.82-4.91-0.02-7.25-0.67-1.22-0.34-2.37-0.73-3.3-1.5-1.06-0.85-1.68-2.13-1.68-3.42-2.67 1.02-4.56 1.01-6.28-1.52-0.68-0.92-1.73-1.53-1.87-2.74-0.1-2.2-0.94-2.96-3.11-3.16-0.71-0.08-1.68-0.28-2.06-0.85-0.25-0.35-0.26-0.9-0.44-1.58-1.07-3.39-6.76 0.54-8.59 1.51-0.5 0.16-1.94 0.94-2.6 1.6-0.8 0.74-1.29 1.74-1.75 2.55-1.6 2.98-7.07 3.81-10.04 2.78-1.2-0.42-2.24-1.28-2.95-2.33-0.63-0.16-1.21-0.47-1.64-1.06l0.92-0.38c0.17 0.51 0.42 0.99 0.73 1.44 0.86 0.22 1.83 0.16 2.7 0.14 2.63-0.34 3.77-3.1 5.02-5.04 0.9-1.67 2.34-3.08 2.63-5 0.36-1.91 0.19-3.81-0.03-5.66-0.45-3.71-1.42-7.28-1.55-10.96-0.07-1.45-0.1-2.91-0.11-4.36-0.18-0.02-0.36-0.04-0.53-0.06-0.02 1.48-0.01 2.97 0.06 4.45 0.08 3.74 1 7.38 1.38 11.02 0.23 2.63 0.55 5.53-1.09 7.73-1.66 2.09-2.59 4.96-4.77 6.53-0.72 0.48-1.59 0.4-2.4 0.38-0.84-0.04-1.81-0.27-2.08-0.74l-2.34-4.05s1.43 4.43 1.43 4.42c1.78 5.69 8.83 5.96 13.33 3.53 1.93-0.89 2.47-3.27 3.81-4.6 0.66-0.65 1.55-1.08 2.43-1.48 1.89-1.09 4.13-2.52 6.27-2.74 1.27 0.07 0.72 1.55 1.44 2.49 1.39 1.82 3.65 0.61 4.79 2.01 0.39 0.94 0.26 2.58 1.22 3.4 1.39 1.23 2.24 3.13 4.2 3.57 1.18 0.23 2.3-0.03 3.35-0.37-0.03-0.14-0.06-0.27-0.08-0.42l0.43 0.3c-0.12 0.04-0.24 0.08-0.36 0.12 0.78 4.04 5.68 4.74 9.09 5.4 1.27 0.19 2.62 0.14 3.84-0.34 0.51-0.4 1.22-0.59 1.91-0.6 2.12-0.02 4 1.27 5.57 2.57l0.07-0.07c-1.96-1.84-5.36-3.83-7.72-2.24z"/>
	<path d="m46.44 30.74c0.18 0.02 0.36 0.04 0.53 0.06 0-0.5 0.01-1 0.01-1.5l-0.51-0.03-0.03 1.47z"/>
	<path d="m47.02 25.57c-0.14 0-0.28 0-0.42-0.01-0.02 0.46-0.03 0.92-0.05 1.38 0.15 0 0.3 0.01 0.46 0.01 0-0.45-0.01-0.92 0.01-1.38z"/>
	<path d="m46.55 26.95c-0.03 0.77-0.06 1.55-0.08 2.32l0.51 0.03c0-0.78 0.01-1.56 0.02-2.34-0.15-0.01-0.3-0.01-0.45-0.01z"/>
	<path d="m77.39 65.89c0.02 0.15 0.05 0.28 0.08 0.42 0.12-0.04 0.24-0.07 0.36-0.12l-0.44-0.3z"/>
	<path d="m32.19 42.6c0.16 0.14 0.3 0.3 0.45 0.45 0-0.21-0.01-0.42-0.01-0.64l-0.44 0.19z"/>
	<path d="m35.95 45.33c0.17 0.11 0.33 0.23 0.5 0.35 0.02-0.19 0.03-0.39 0.07-0.58l-0.57 0.23z"/>
	<path d="m43.08 53.72c-1.93-1.4-2.22-3.66-3.33-5.74-0.9-1.61-2.39-2.64-3.86-3.56-0.74 3.64 0.86 7.34 3.02 10.16-1.33-2.55-2.82-5.84-2.46-8.89-0.17-0.12-0.33-0.24-0.5-0.35l0.56-0.23c-0.04 0.19-0.04 0.39-0.07 0.58 1.05 0.75 2.02 1.58 2.61 2.68 0.99 1.91 1.61 4.55 3.64 5.87 0.53 0.36 1.04 0.46 1.5 0.8 0.66 0.55 0.11 1.52-0.62 1.89-1.39 0.67-2.77-0.75-3.85-1.54-1.88-1.29-3.77-2.58-5.12-4.44-1.73-2.2-1.93-5.09-1.96-7.91-0.15-0.15-0.3-0.31-0.45-0.45l0.45-0.19c0 0.21 0 0.42 0.01 0.64 1.12 1.1 2.1 2.36 2.91 3.74-0.49-1.79-2.05-3.6-3.43-5-0.13 3.22-0.26 6.93 2.06 9.5 1.5 1.8 3.52 2.97 5.39 4.29 1.38 1.21 3.65 3.01 5.14 0.92 0.4-0.52 0.42-1.44-0.15-1.91-0.44-0.36-1.09-0.56-1.49-0.86z"/>
	<path d="m40.39 57.79c-0.06 0.44-0.28 0.8-0.72 0.8-0.21-0.02-0.42-0.05-0.55 0.06-0.17 0.12-0.5 0.62-0.75 0.85-0.09-0.53-0.39-1.29-0.03-1.77 0.12-0.21 0.7-0.64 0.96-0.39 0.03 0.67 0.01 0.92-0.32 1.42l-0.55-0.4c0.42 0.07 0.72 0.07 0.89-0.4 0.22-0.36 0.59-0.35 1.01-0.25 0 0 0.06 0.08 0.06 0.08z"/>
	<path d="m38.63 56.75c0.25 0.56-0.04 1.25-0.62 1.39-0.28 0.06-0.52 0.1-0.76 0.23v-0.21c-0.04-0.52-0.54-0.97-0.47-1.56-0.04-0.62 0.77-1.46 1.4-1.01v0.1c-0.22 0.2-0.24 0.4-0.28 0.55-0.04 0.36-0.13 0.73-0.21 1.12-0.08 0.23-0.19 0.49-0.13 0.73l-0.22-0.11c0.25-0.13 0.26-0.55 0.46-0.72 0.19-0.18 0.38-0.34 0.74-0.54l0.09 0.03z"/>
	<path d="m86.97 31.92c-0.17-0.01-0.33-0.03-0.5-0.04 0.03 0.82 0.17 1.65 0.27 2.41 0.04 0.28 0.06 0.55 0.09 0.83 0.29 0.03 0.57 0.06 0.86 0.09-0.05-0.35-0.1-0.71-0.18-1.06-0.17-0.75-0.4-1.49-0.54-2.23z"/>
	<path d="m86.91 29.77l-0.1-0.03c-0.29 0.69-0.36 1.41-0.33 2.14 0.16 0.01 0.33 0.03 0.5 0.04-0.15-0.7-0.21-1.41-0.07-2.15z"/>
	<path d="m86.84 35.13c0.11 1.19 0.08 2.38 0 3.58-0.47 4.41-0.62 9.05-1.97 13.33-1.64 4.21-3.77 8.13-5.93 12.12 4.39-4.1 5.9-10.68 7.49-16.39 0.86-4.09 1.92-8.35 1.27-12.55-0.29-0.04-0.57-0.06-0.86-0.09z"/>
	<path d="m97.14 36.16c0.19 0.02 0.39 0.04 0.58 0.06 0.09-0.88 0.22-1.76 0.44-2.63l-0.09-0.04c-0.42 0.86-0.72 1.73-0.93 2.61z"/>
	<path d="m97.71 36.22c-0.19-0.02-0.39-0.04-0.58-0.06-0.84 3.48-0.4 7.21-0.43 10.75-0.02 2.96-0.54 5.92-1.63 8.68-1 2.42-2.6 5.72-3.63 8.17-0.58 1.36-1.46 2.76-1.36 4.3h0.1c0.27-1.47 1.23-2.62 1.95-3.96 2.2-3.97 3.14-8.44 4.69-12.68 1.67-4.96 0.4-10.14 0.89-15.2z"/>
	<path d="m42.43 29.02c-0.01 0.42-0.02 0.85-0.02 1.27 0.34 0.04 0.68 0.08 1.02 0.11v-1.32c-0.34-0.02-0.67-0.04-1-0.06z"/>
	<path d="m43.4 26.89c-0.32 0-0.65-0.01-0.97-0.02-0.03 0.51-0.03 1.02 0.02 1.54-0.01 0.2-0.01 0.4-0.01 0.6 0.33 0.02 0.66 0.04 1 0.06v-0.66c-0.07-0.51-0.07-1.02-0.04-1.52z"/>
	<path d="m43.54 25.52c-0.32 0-0.64 0-0.97-0.01-0.07 0.45-0.13 0.9-0.16 1.36 0.32 0 0.65 0.01 0.97 0.02 0.04-0.46 0.09-0.92 0.16-1.37z"/>
	<path d="m44.34 43.44c-0.04-1.76-0.48-3.31-0.59-5.03-0.26-2.65-0.31-5.33-0.32-8.01-0.34-0.04-0.68-0.08-1.02-0.11 0 4.4 0.46 8.85 1.28 13.14 0.02 0.76-0.3 1.57-0.27 2.5 0.01 0.96 0.75 1.6 0.71 2.3 0.04-0.02 0.07-0.04 0.1-0.05l-0.1 0.13v-0.07c-1.07 0.49-1.99 1.28-2.6 2.25 0.76-0.95 1.78-1.66 2.91-2.03 0.24-0.93-0.54-1.67-0.5-2.54 0-0.77 0.36-1.56 0.4-2.48z"/>
	<path d="m42.58 25.52c0.32 0 0.64 0 0.97 0.01"/>
	<path d="m44.23 48.17c-0.04 0.02-0.07 0.04-0.1 0.05v0.07l0.1-0.12z"/>
	<path d="m43.55 46.74c-1.28 0.07-2.38-0.56-3.43-1.17l0.79-0.43c0.99-0.65 4.58-0.99 1.67 0.25l-1.2 0.62 0.02-0.86c0.74 0.46 1.46 0.91 2.15 1.59z"/>
	<path d="m46.35 48c-1.28 0.07-2.38-0.56-3.43-1.17l0.79-0.43c0.99-0.65 4.58-0.99 1.67 0.25l-1.2 0.62 0.02-0.86c0.74 0.46 1.46 0.91 2.15 1.59z"/>
</svg>
